<?xml version="1.0" encoding="utf-8"?>
<!-- Generator: Adobe Illustrator 22.0.1, SVG Export Plug-In . SVG Version: 6.00 Build 0)  -->
<svg version="1.1" id="Calque_1" xmlns="http://www.w3.org/2000/svg" xmlns:xlink="http://www.w3.org/1999/xlink" x="0px" y="0px"
	 viewBox="0 0 1920 600" style="enable-background:new 0 0 1920 600;" xml:space="preserve">
<style type="text/css">
	.st0{opacity:0.19;
	fill:none;
	stroke:#B3B3B3;
	stroke-width:1.6495;
	stroke-miterlimit:10;
	
	stroke-dasharray: 4000;
	stroke-dashoffset: 0;	
	-webkit-animation: dash 9s linear forwards;
	-o-animation: dash 9s linear forwards;
	-moz-animation: dash 9s linear forwards;
	animation: dash 9s linear forwards;
	}

	@-webkit-keyframes dash{
		from {
			stroke-dashoffset: 4000;
		}
		to {
			stroke-dashoffset: 0;
		}
	}

	
	
	
</style>
<path class="st0" d="M469.5,52.2C426.3,13.8,348.5-2.6,288,32.6s51,67.5,0,149.7s-257.9,96.9-232.5,182s754.7-138,904.4-49.9
	s522.3,226.1,509.5,91s-63.7-114.5-210.2-226.1s-414,26.4-560.5-8.8S505.4,84.1,469.5,52.2z"/>
<path class="st0" d="M447.7,67.8c-43.3-38.4-121-54.8-181.5-19.6s51,67.5,0,149.7S8.2,294.9,33.7,380s754.7-138,904.4-49.9
	s522.3,226.1,509.5,91c-12.7-135-63.7-114.5-210.2-226.1s-414,26.4-560.5-8.8S483.6,99.7,447.7,67.8z"/>
<path class="st0" d="M435,82.3c-43.3-38.4-121-54.8-181.5-19.6s51,67.5,0,149.7S-4.5,309.4,21,394.5s754.7-138,904.4-49.9
	s522.3,226.1,509.5,91s-63.7-114.5-210.2-226.1s-414,26.4-560.5-8.8S470.9,114.2,435,82.3z"/>
<path class="st0" d="M413.1,98c-43.3-38.4-121-54.8-181.5-19.6s51,67.5,0,149.7S-26.3,325-0.8,410.2s754.7-138,904.4-49.9
	s522.3,226.1,509.5,91s-63.7-114.5-210.2-226.1s-414,26.4-560.5-8.8S449,129.9,413.1,98z"/>
<path class="st0" d="M499.2,144.4c-43.3-38.4-121-54.8-181.5-19.6s51,67.5,0,149.7s-257.9,96.9-232.5,182s754.7-138,904.4-49.9
	s522.3,226.1,509.5,91c-12.7-135-63.7-114.5-210.2-226.1s-414,26.4-560.5-8.8S535.1,176.2,499.2,144.4z"/>
<path class="st0" d="M477.4,160c-43.3-38.4-121-54.8-181.5-19.6s51,67.5,0,149.7S37.9,387,63.4,472.2s754.7-138,904.4-49.9
	s522.3,226.1,509.5,91s-63.7-114.5-210.2-226.1s-414,26.4-560.5-8.8S513.3,191.9,477.4,160z"/>
<path class="st0" d="M464.7,174.5c-43.3-38.4-121-54.8-181.5-19.6s51,67.5,0,149.7s-257.9,96.9-232.5,182s754.7-138,904.4-49.9
	s522.3,226.1,509.5,91c-12.7-135-63.7-114.5-210.2-226.1s-414,26.4-560.5-8.8S500.6,206.4,464.7,174.5z"/>
<path class="st0" d="M442.8,190.2c-43.3-38.4-121-54.8-181.5-19.6s51,67.5,0,149.7S3.4,417.2,28.9,502.4s754.7-138,904.4-49.9
	s522.3,226.1,509.5,91s-63.7-114.5-210.2-226.1s-414,26.4-560.5-8.8S478.7,222.1,442.8,190.2z"/>
<path class="st0" d="M913.8,33.7c-43.3-38.4-121-54.8-181.5-19.6c-60.5,35.2,51,67.5,0,149.7c-51,82.2-257.9,96.9-232.5,182
	c25.5,85.1,754.7-138,904.4-49.9s522.3,226.1,509.5,91S1850,272.5,1703.5,161s-414,26.4-560.5-8.8S949.7,65.6,913.8,33.7z"/>
<path class="st0" d="M891.9,49.4C848.7,11,770.9-5.4,710.4,29.8s51,67.5,0,149.7s-257.9,96.9-232.5,182s754.7-138,904.4-49.9
	s522.3,226.1,509.5,91c-12.7-135-63.7-114.5-210.2-226.1s-414,26.4-560.5-8.8S927.8,81.3,891.9,49.4z"/>
<path class="st0" d="M879.2,63.9C836,25.5,758.2,9.1,697.7,44.3s51,67.5,0,149.7s-257.9,96.9-232.5,182s754.7-138,904.4-49.9
	s522.3,226.1,509.5,91s-63.7-114.5-210.2-226.1s-414,26.4-560.5-8.8S915.1,95.8,879.2,63.9z"/>
<path class="st0" d="M857.4,79.6c-43.3-38.4-121-54.8-181.5-19.6s51,67.5,0,149.7s-257.9,96.9-232.5,182s754.7-138,904.4-49.9
	s522.3,226.1,509.5,91c-12.7-135-63.7-114.5-210.2-226.1s-414,26.4-560.5-8.8S893.3,111.4,857.4,79.6z"/>
</svg>
