<?xml version="1.0" encoding="utf-8"?>
<!-- Generator: Adobe Illustrator 22.0.1, SVG Export Plug-In . SVG Version: 6.00 Build 0)  -->
<svg version="1.1" id="Calque_1" xmlns="http://www.w3.org/2000/svg" xmlns:xlink="http://www.w3.org/1999/xlink" x="0px" y="0px"
	 viewBox="0 0 600 556.9" style="enable-background:new 0 0 600 556.9;" xml:space="preserve">
<style type="text/css">
	.st0{fill:#999999;}
</style>
<path class="st0" d="M299.9,554.8c-6.6-9.6-13.2-19.2-19.9-28.7c-67.8-97.2-135.6-194.5-203.5-291.7
	c-24.1-34.6-48.2-69.2-72.3-103.7c-0.6-0.9-1.3-1.7-2-2.6c0-0.2,0-0.4,0-0.5c4.8-5.1,9.6-10.2,14.4-15.3
	C49.5,76.5,82.4,41,115.3,5.3c1.4-1.5,2.8-2.1,4.9-2.1c57.2,0.1,114.3,0,171.5,0c1.1,0,2.2-0.3,3.3-0.5c0.4,0,0.7,0,1.1,0
	c1.1,0.2,2.3,0.5,3.4,0.5c57.3,0,114.5,0,171.8,0c2.1,0,3.5,0.5,5,2c39.9,40,79.9,80,119.9,119.9c0.8,0.8,1.9,1.2,2.8,1.8
	c-6.3,9-11.9,17.1-17.6,25.2c-52.1,74.8-104.3,149.5-156.4,224.3c-41,58.9-82.1,117.7-123.2,176.6c-0.4,0.6-0.9,1.2-1.3,1.8
	C300.3,554.8,300.1,554.8,299.9,554.8z M300.3,526.4c0.4-1,0.6-1.4,0.8-1.8c15.5-46.1,31-92.1,46.5-138.2
	c15.1-44.9,30.1-89.7,45.2-134.6c0.5-1.4,0.4-2.4-0.6-3.7c-5.8-7.1-11.6-14.3-17.4-21.5c-21-26.1-42.1-52.2-63.2-78.3
	c-3.7-4.6-7.4-9.2-11.2-13.8c-0.4,0.5-0.7,0.7-0.9,1c-29.7,37.7-59.5,75.4-89.2,113.1c-1.1,1.4-0.9,2.5-0.4,4
	c3.8,11.6,7.6,23.1,11.4,34.7c19.3,58.3,38.6,116.6,57.9,175C286.1,483.4,293.1,504.6,300.3,526.4z M71.2,136.9c0,1.7,0,2.6,0,3.6
	c0,20.6,0.3,41.2-0.1,61.8c-0.1,7.1,1.7,12.7,5.8,18.5C148,322.6,219,424.4,290,526.2c0.8,1.1,1.6,2.2,2.4,3.4
	c0.1-1.1-0.1-1.9-0.4-2.8c-7.1-21.5-14.1-43-21.2-64.5c-23-69.5-45.9-139.1-68.9-208.6c-0.4-1.1-1.1-2.3-2-3.1
	c-7.8-7-15.7-13.9-23.5-20.8c-27.8-24.6-55.6-49.1-83.4-73.7C85.9,149.8,78.8,143.6,71.2,136.9z M530.8,137.5
	c-1.2,1-1.9,1.6-2.7,2.2c-14.6,12.8-29.1,25.6-43.7,38.5c-27.1,23.9-54.1,47.7-81.2,71.6c-1.1,1-2.1,2.3-2.5,3.7
	c-14.5,42.8-28.9,85.6-43.3,128.4c-15,44.4-29.9,88.9-44.9,133.3c-1.5,4.6-3,9.2-4.5,13.8c0.8-0.3,1.2-0.8,1.5-1.3
	c22.9-32.9,45.8-65.7,68.7-98.6c47.9-68.7,95.8-137.5,143.8-206.1c2.5-3.5,3.6-7.1,3.8-11.3c0.6-12.6,1.6-25.3,2.4-37.9
	C529.2,162,530,150.1,530.8,137.5z M390.7,59.7c-1.3-0.7-2.1-1.3-3-1.7c-29.9-15.1-59.8-30.1-89.6-45.2c-1.6-0.8-2.9-0.8-4.5,0
	c-26,13.8-52.1,27.6-78.1,41.4c-3.3,1.8-6.7,3.6-10.2,5.5c0.7,0.5,1.1,0.8,1.5,1c30.4,20.3,60.8,40.5,91.1,60.8c2,1.3,3.7,1,5.5-0.3
	c19.4-13.6,38.7-27.2,58.1-40.8C371,73.5,380.6,66.7,390.7,59.7z M119.7,12.4C85.4,49.6,51.2,86.6,16.6,123.9c1,0.1,1.4,0.1,1.8,0.1
	c15.3,0,30.6,0,45.9,0c1.3,0,2.7-0.5,3.9-1.1c38-20,75.9-40.1,113.8-60.2c2.4-1.2,4.7-2.5,7.3-4C166,43.3,143,27.9,119.7,12.4z
	 M406.5,58.4c1.1,0.6,1.9,1.1,2.8,1.6c8.4,4.3,16.9,8.5,25.4,12.8c33.4,16.8,66.8,33.6,100.2,50.4c1.2,0.6,2.8,0.9,4.2,0.9
	c13.9,0.1,27.7,0,41.6,0c0.8,0,1.5,0,2.2,0c-37.1-37.1-74.2-74.2-111.3-111.3C450.1,27.8,428.4,43,406.5,58.4z M436.3,132.2
	c-42.7,0-84.9,0-127.5,0c29.4,36.4,58.5,72.5,87.8,108.9C409.9,204.5,423.1,168.4,436.3,132.2z M292.1,132c-39.2,0-77.8,0-116.8,0
	c10.3,36.2,20.6,72.2,31,108.8C235,204.3,263.4,168.4,292.1,132z M518,123.9c-1.1-0.7-1.7-1.1-2.3-1.4
	c-38.2-19.2-76.3-38.5-114.5-57.8c-1.7-0.9-2.9-0.7-4.4,0.3c-27,19-54.1,38-81.1,57c-0.6,0.4-1.2,1-2.2,1.8
	C381.8,123.9,449.6,123.9,518,123.9z M286.7,123.9c-1.1-0.8-1.8-1.4-2.5-1.9c-28.4-18.9-56.8-37.8-85.2-56.8c-1.6-1.1-2.8-1-4.4-0.2
	c-34.4,18.2-68.8,36.4-103.2,54.7c-2.4,1.3-4.7,2.5-7.1,3.8c0.1,0.1,0.1,0.3,0.2,0.4C151.7,123.9,218.9,123.9,286.7,123.9z
	 M77.8,132c39.8,35.2,79.1,69.9,118.3,104.6c0.2-0.1,0.4-0.2,0.5-0.4c-9.9-34.7-19.8-69.5-29.7-104.2C137.3,132,107.9,132,77.8,132z
	 M407.6,234.4c0.2,0.1,0.4,0.2,0.6,0.3c38.7-34.1,77.4-68.2,116.5-102.6c-1-0.1-1.3-0.2-1.7-0.2c-25.4,0-50.7,0-76.1-0.1
	c-2.2,0-2.5,1.2-3,2.7c-9.8,27-19.7,54-29.5,81C412.1,221.8,409.9,228.1,407.6,234.4z M132.8,11.3c1.1,0.8,1.5,1.1,1.9,1.4
	c20.4,13.6,40.7,27.2,61.1,40.8c1.2,0.8,2.1,0.9,3.4,0.2c25.7-13.6,51.4-27.2,77.1-40.8c0.7-0.3,1.2-0.8,2.3-1.6
	C229.9,11.3,181.7,11.3,132.8,11.3z M459.5,11.4c-49,0-97.2,0-146.1,0c1.4,0.8,2.2,1.3,2.9,1.7C343,26.6,369.7,40,396.4,53.5
	c1.6,0.8,2.6,0.4,3.9-0.5c7.2-5.1,14.4-10.2,21.7-15.2C434.2,29.1,446.5,20.5,459.5,11.4z M534.4,204.3c0.2,0.1,0.5,0.1,0.7,0.2
	c16.8-24,33.5-48.1,50.4-72.3c-15.8,0-31.1,0-46.4,0C537.5,156.4,536,180.3,534.4,204.3z M15,131.9c16.1,23.1,31.9,45.7,48,68.8
	c0.2-1.3,0.3-1.8,0.3-2.3c0-21.4,0-42.8,0-64.2c0-2.1-0.8-2.4-2.6-2.3c-13.2,0.1-26.4,0-39.6,0C19.3,131.9,17.5,131.9,15,131.9z"/>
</svg>
