<?xml version="1.0" encoding="utf-8"?>
<!-- Generator: Adobe Illustrator 22.0.1, SVG Export Plug-In . SVG Version: 6.00 Build 0)  -->
<svg version="1.1" id="Calque_1" xmlns="http://www.w3.org/2000/svg" xmlns:xlink="http://www.w3.org/1999/xlink" x="0px" y="0px"
	 viewBox="0 0 1762 800" style="enable-background:new 0 0 1762 800;" xml:space="preserve">
<style type="text/css">
	.st0{opacity:0.7;}
	.st1{opacity:0.33;fill:none;stroke:#E6E6E6;stroke-miterlimit:10;}
	.st2{fill:none;stroke:#E6E6E6;stroke-miterlimit:10;}
	.st3{opacity:0.6;fill:none;stroke:#E6E6E6;stroke-miterlimit:10;}
	
</style>
<g class="st0">
	<path class="st1" d="M1769.1,113.4c0,0-320.4-193.8-973.2,114.9S3.2,395.2,3.2,395.2"/>
	<path class="st1" d="M1769.1,155.9c0,0-320.4-193.8-973.2,114.9S3.2,437.7,3.2,437.7"/>
	<path class="st1" d="M1768.1,199.5c0,0-320.4-193.8-973.2,114.9S2.2,481.3,2.2,481.3"/>
	<path class="st2" d="M1768.1,242c0,0-320.4-193.8-973.2,114.9S2.2,523.8,2.2,523.8"/>
	<path class="st2" d="M1769.6,285.1c0,0-320.4-193.8-973.2,114.9S3.7,566.9,3.7,566.9"/>
	<path class="st3" d="M1769.6,327.6c0,0-320.4-193.8-973.2,114.9S3.7,609.4,3.7,609.4"/>
	<path class="st1" d="M1766.6,179.8c0,0-320.4-193.8-973.2,114.9S0.7,461.5,0.7,461.5"/>
	<path class="st2" d="M1766.6,222.3c0,0-320.4-193.8-973.2,114.9S0.7,504,0.7,504"/>
	<path class="st2" d="M1768.1,265.4c0,0-320.4-193.8-973.2,114.9S2.2,547.1,2.2,547.1"/>
	<path class="st3" d="M1768.1,307.9c0,0-320.4-193.8-973.2,114.9S2.2,589.6,2.2,589.6"/>
	<path class="st3" d="M1767.1,351.5c0,0-320.4-193.8-973.2,114.9S1.2,633.3,1.2,633.3"/>
	<path class="st3" d="M1767.1,394c0,0-320.4-193.8-973.2,114.9S1.2,675.8,1.2,675.8"/>
	<path class="st2" d="M1768.6,437.1c0,0-320.4-193.8-973.2,114.9S2.7,718.8,2.7,718.8"/>
	<path class="st2" d="M1768.6,479.6c0,0-320.4-193.8-973.2,114.9S2.7,761.3,2.7,761.3"/>
</g>
<g>
	<path class="st2" d="M1.1,85.6c0,0,319.5-162,970.5,96S1762,321.1,1762,321.1"/>
	<path class="st2" d="M1.1,121.1c0,0,319.5-162,970.5,96S1762,356.6,1762,356.6"/>
	<path class="st2" d="M-0.4,157.1c0,0,319.5-162,970.5,96s790.5,139.5,790.5,139.5"/>
	<path class="st2" d="M-0.4,192.6c0,0,319.5-162,970.5,96s790.5,139.5,790.5,139.5"/>
	<path class="st2" d="M0.6,229.1c0,0,319.5-162,970.5,96s790.5,139.5,790.5,139.5"/>
	<path class="st2" d="M0.6,264.6c0,0,319.5-162,970.5,96s790.5,139.5,790.5,139.5"/>
	<path class="st2" d="M-0.9,300.6c0,0,319.5-162,970.5,96S1760,536.1,1760,536.1"/>
	<path class="st2" d="M-0.9,336.2c0,0,319.5-162,970.5,96s790.5,139.5,790.5,139.5"/>
	<path class="st2" d="M2.1,212.6c0,0,319.5-162,970.5,96S1763,448.1,1763,448.1"/>
	<path class="st2" d="M2.1,248.1c0,0,319.5-162,970.5,96S1763,483.6,1763,483.6"/>
	<path class="st2" d="M0.6,284.1c0,0,319.5-162,970.5,96s790.5,139.5,790.5,139.5"/>
	<path class="st2" d="M0.6,319.7c0,0,319.5-162,970.5,96s790.5,139.5,790.5,139.5"/>
	<path class="st2" d="M1.6,356.1c0,0,319.5-162,970.5,96s790.5,139.5,790.5,139.5"/>
	<path class="st2" d="M1.6,391.7c0,0,319.5-162,970.5,96s790.5,139.5,790.5,139.5"/>
	<path class="st2" d="M0.1,427.7c0,0,319.5-162,970.5,96s790.5,139.5,790.5,139.5"/>
	<path class="st2" d="M0.1,463.2c0,0,319.5-162,970.5,96s790.5,139.5,790.5,139.5"/>
</g>
</svg>
