<?xml version="1.0" encoding="utf-8"?>
<!-- Generator: Adobe Illustrator 22.0.1, SVG Export Plug-In . SVG Version: 6.00 Build 0)  -->
<svg version="1.1" id="Calque_1" xmlns="http://www.w3.org/2000/svg" xmlns:xlink="http://www.w3.org/1999/xlink" x="0px" y="0px"
	 viewBox="0 0 600 141" style="enable-background:new 0 0 600 141;" xml:space="preserve">
<style type="text/css">
	.st0{
	fill:#5B5B5B;
}

</style>
<g>
	<path class="st0" d="M8.3,31.7c-0.9,0-1.6-0.1-2.2-0.4v-2.1c0.7,0.2,1.4,0.3,2.2,0.3c1,0,1.7-0.3,2.2-0.9c0.5-0.6,0.8-1.4,0.8-2.5
		V4.7h2.5v21.2c0,1.9-0.5,3.3-1.4,4.3S10.1,31.7,8.3,31.7z"/>
	
	

	<path class="st0" d="M25.8,26.4c-2.4,0-4.2-0.7-5.6-2.2s-2.1-3.5-2.1-6c0-2.6,0.6-4.6,1.9-6.2c1.3-1.5,3-2.3,5.1-2.3
		c2,0,3.6,0.7,4.8,2s1.8,3.1,1.8,5.2v1.5H20.7c0,1.9,0.5,3.3,1.4,4.3c0.9,1,2.2,1.5,3.8,1.5c1.7,0,3.4-0.4,5.1-1.1v2.2
		c-0.9,0.4-1.7,0.6-2.4,0.8C27.9,26.3,26.9,26.4,25.8,26.4z M25.2,11.8c-1.3,0-2.3,0.4-3.1,1.3s-1.2,2-1.4,3.5h8.4
		c0-1.5-0.3-2.7-1-3.5S26.5,11.8,25.2,11.8z"/>
	
	
	
	<path class="st0" d="M64.2,26.1V15.6c0-1.3-0.3-2.2-0.8-2.9s-1.4-1-2.5-1c-1.5,0-2.6,0.4-3.4,1.3s-1.1,2.2-1.1,4v9h-2.4V15.6
		c0-1.3-0.3-2.2-0.8-2.9s-1.4-1-2.6-1c-1.5,0-2.6,0.5-3.3,1.4c-0.7,0.9-1.1,2.4-1.1,4.5v8.4h-2.4V10h2l0.4,2.2h0.1
		c0.5-0.8,1.1-1.4,1.9-1.8c0.8-0.4,1.8-0.7,2.8-0.7c2.5,0,4.2,0.9,4.9,2.7H56c0.5-0.8,1.2-1.5,2.1-2s1.9-0.7,3.1-0.7
		c1.8,0,3.2,0.5,4.1,1.4c0.9,0.9,1.4,2.4,1.4,4.5v10.5H64.2z"/>
	
	
	<path class="st0" d="M78.4,26.4c-2.4,0-4.2-0.7-5.6-2.2s-2.1-3.5-2.1-6c0-2.6,0.6-4.6,1.9-6.2c1.3-1.5,3-2.3,5.1-2.3
		c2,0,3.6,0.7,4.8,2s1.8,3.1,1.8,5.2v1.5H73.2c0,1.9,0.5,3.3,1.4,4.3c0.9,1,2.2,1.5,3.8,1.5c1.7,0,3.4-0.4,5.1-1.1v2.2
		c-0.9,0.4-1.7,0.6-2.4,0.8C80.4,26.3,79.5,26.4,78.4,26.4z M77.7,11.8c-1.3,0-2.3,0.4-3.1,1.3s-1.2,2-1.4,3.5h8.4
		c0-1.5-0.3-2.7-1-3.5S79,11.8,77.7,11.8z"/>
	
	
	<path class="st0" d="M107.2,26.1V15.7c0-1.3-0.3-2.3-0.9-2.9s-1.5-1-2.8-1c-1.7,0-2.9,0.5-3.7,1.4s-1.2,2.4-1.2,4.5v8.4h-2.4V10h2
		l0.4,2.2h0.1c0.5-0.8,1.2-1.4,2.1-1.8s1.9-0.7,3-0.7c1.9,0,3.4,0.5,4.4,1.4s1.5,2.4,1.5,4.5v10.5H107.2z"/>
	
	<path class="st0" d="M128.5,18c0,2.6-0.7,4.7-2,6.1s-3.1,2.2-5.5,2.2c-1.4,0-2.7-0.3-3.8-1s-2-1.6-2.6-2.9s-0.9-2.7-0.9-4.4
		c0-2.6,0.7-4.7,2-6.1s3.1-2.2,5.4-2.2c2.2,0,4,0.7,5.4,2.2C127.8,13.5,128.5,15.5,128.5,18z M116.3,18c0,2.1,0.4,3.6,1.2,4.7
		s2,1.6,3.6,1.6s2.8-0.5,3.6-1.6s1.2-2.6,1.2-4.7c0-2-0.4-3.6-1.2-4.7s-2-1.6-3.7-1.6c-1.6,0-2.8,0.5-3.6,1.6S116.3,16,116.3,18z"/>
	
	<path class="st0" d="M153.2,26.1V15.6c0-1.3-0.3-2.2-0.8-2.9s-1.4-1-2.5-1c-1.5,0-2.6,0.4-3.4,1.3s-1.1,2.2-1.1,4v9H143V15.6
		c0-1.3-0.3-2.2-0.8-2.9s-1.4-1-2.6-1c-1.5,0-2.6,0.5-3.3,1.4c-0.7,0.9-1.1,2.4-1.1,4.5v8.4h-2.4V10h2l0.4,2.2h0.1
		c0.5-0.8,1.1-1.4,1.9-1.8c0.8-0.4,1.8-0.7,2.8-0.7c2.5,0,4.2,0.9,4.9,2.7h0.1c0.5-0.8,1.2-1.5,2.1-2s1.9-0.7,3.1-0.7
		c1.8,0,3.2,0.5,4.1,1.4c0.9,0.9,1.4,2.4,1.4,4.5v10.5H153.2z"/>

	<path class="st0" d="M181.1,26.1V15.6c0-1.3-0.3-2.2-0.8-2.9s-1.4-1-2.5-1c-1.5,0-2.6,0.4-3.4,1.3s-1.1,2.2-1.1,4v9h-2.4V15.6
		c0-1.3-0.3-2.2-0.8-2.9s-1.4-1-2.6-1c-1.5,0-2.6,0.5-3.3,1.4c-0.7,0.9-1.1,2.4-1.1,4.5v8.4h-2.4V10h2l0.4,2.2h0.1
		c0.5-0.8,1.1-1.4,1.9-1.8c0.8-0.4,1.8-0.7,2.8-0.7c2.5,0,4.2,0.9,4.9,2.7h0.1c0.5-0.8,1.2-1.5,2.1-2s1.9-0.7,3.1-0.7
		c1.8,0,3.2,0.5,4.1,1.4c0.9,0.9,1.4,2.4,1.4,4.5v10.5H181.1z"/>
	<path class="st0" d="M195.3,26.4c-2.4,0-4.2-0.7-5.6-2.2s-2.1-3.5-2.1-6c0-2.6,0.6-4.6,1.9-6.2c1.3-1.5,3-2.3,5.1-2.3
		c2,0,3.6,0.7,4.8,2s1.8,3.1,1.8,5.2v1.5h-11.1c0,1.9,0.5,3.3,1.4,4.3c0.9,1,2.2,1.5,3.8,1.5c1.7,0,3.4-0.4,5.1-1.1v2.2
		c-0.9,0.4-1.7,0.6-2.4,0.8C197.4,26.3,196.4,26.4,195.3,26.4z M194.7,11.8c-1.3,0-2.3,0.4-3.1,1.3s-1.2,2-1.4,3.5h8.4
		c0-1.5-0.3-2.7-1-3.5S196,11.8,194.7,11.8z"/>
	<path class="st0" d="M225.6,20.4c0,1.9-0.7,3.4-2.1,4.4s-3.2,1.6-5.6,1.6c-2.5,0-4.5-0.3-5.9-1V23c0.9,0.4,1.8,0.7,2.9,0.9
		s2.1,0.3,3.1,0.3c1.7,0,2.9-0.3,3.8-0.9s1.3-1.5,1.3-2.6c0-0.7-0.1-1.4-0.4-1.8s-0.8-0.9-1.5-1.3s-1.8-0.9-3.2-1.4
		c-2-0.7-3.4-1.6-4.3-2.5c-0.9-1-1.3-2.3-1.3-3.8c0-1.7,0.6-3,1.9-3.9s2.9-1.5,4.9-1.5c2.1,0,4.1,0.4,5.9,1.2l-0.8,2.2
		c-1.8-0.7-3.5-1.1-5.2-1.1c-1.3,0-2.3,0.3-3.1,0.8S215,8.8,215,9.8c0,0.7,0.1,1.4,0.4,1.8s0.7,0.9,1.4,1.3s1.6,0.8,3,1.3
		c2.2,0.8,3.8,1.7,4.6,2.6C225.2,17.7,225.6,18.9,225.6,20.4z"/>
	<path class="st0" d="M239.5,26.1l-0.5-2.3h-0.1c-0.8,1-1.6,1.7-2.4,2s-1.8,0.5-3,0.5c-1.6,0-2.8-0.4-3.7-1.2
		c-0.9-0.8-1.4-2-1.4-3.5c0-3.2,2.6-4.9,7.8-5.1l2.7-0.1v-1c0-1.3-0.3-2.2-0.8-2.8c-0.5-0.6-1.4-0.9-2.6-0.9c-1.3,0-2.9,0.4-4.5,1.2
		l-0.7-1.9c0.8-0.4,1.7-0.8,2.6-1c0.9-0.2,1.9-0.4,2.8-0.4c1.9,0,3.3,0.4,4.3,1.3c0.9,0.8,1.4,2.2,1.4,4.1v11H239.5z M234,24.4
		c1.5,0,2.7-0.4,3.6-1.2c0.9-0.8,1.3-2,1.3-3.5v-1.5l-2.4,0.1c-1.9,0.1-3.3,0.4-4.2,0.9s-1.3,1.4-1.3,2.5c0,0.9,0.3,1.5,0.8,2
		C232.3,24.1,233.1,24.4,234,24.4z"/>
	<path class="st0" d="M257.3,26.1V15.7c0-1.3-0.3-2.3-0.9-2.9s-1.5-1-2.8-1c-1.7,0-2.9,0.5-3.7,1.4s-1.2,2.4-1.2,4.5v8.4h-2.4V10h2
		l0.4,2.2h0.1c0.5-0.8,1.2-1.4,2.1-1.8s1.9-0.7,3-0.7c1.9,0,3.4,0.5,4.4,1.4s1.5,2.4,1.5,4.5v10.5H257.3z"/>
	<path class="st0" d="M275.7,26.1V15.7c0-1.3-0.3-2.3-0.9-2.9s-1.5-1-2.8-1c-1.7,0-2.9,0.5-3.7,1.4s-1.2,2.4-1.2,4.5v8.4h-2.4V10h2
		l0.4,2.2h0.1c0.5-0.8,1.2-1.4,2.1-1.8s1.9-0.7,3-0.7c1.9,0,3.4,0.5,4.4,1.4s1.5,2.4,1.5,4.5v10.5H275.7z"/>
	<path class="st0" d="M280.6,10h2.6l3.5,9.2c0.8,2.1,1.3,3.6,1.4,4.5h0.1c0.1-0.5,0.4-1.4,0.8-2.6c0.4-1.2,1.7-4.9,4-11.1h2.6
		l-6.9,18.3c-0.7,1.8-1.5,3.1-2.4,3.8c-0.9,0.8-2,1.1-3.4,1.1c-0.7,0-1.5-0.1-2.2-0.2v-1.9c0.5,0.1,1.1,0.2,1.8,0.2
		c1.7,0,2.9-0.9,3.6-2.8l0.9-2.3L280.6,10z"/>
	<path class="st0" d="M315.6,6.6c-2.4,0-4.2,0.8-5.6,2.4c-1.4,1.6-2,3.7-2,6.4c0,2.8,0.7,5,2,6.5c1.3,1.5,3.2,2.3,5.6,2.3
		c1.5,0,3.2-0.3,5.1-0.8v2.2c-1.5,0.6-3.3,0.8-5.5,0.8c-3.2,0-5.6-1-7.3-2.9c-1.7-1.9-2.6-4.6-2.6-8.2c0-2.2,0.4-4.1,1.2-5.8
		c0.8-1.7,2-2.9,3.6-3.8c1.6-0.9,3.4-1.3,5.5-1.3c2.2,0,4.2,0.4,5.9,1.2l-1.1,2.1C318.9,7,317.2,6.6,315.6,6.6z"/>
	<path class="st0" d="M338.9,18c0,2.6-0.7,4.7-2,6.1s-3.1,2.2-5.5,2.2c-1.4,0-2.7-0.3-3.8-1s-2-1.6-2.6-2.9s-0.9-2.7-0.9-4.4
		c0-2.6,0.7-4.7,2-6.1s3.1-2.2,5.4-2.2c2.2,0,4,0.7,5.4,2.2C338.2,13.5,338.9,15.5,338.9,18z M326.6,18c0,2.1,0.4,3.6,1.2,4.7
		s2,1.6,3.6,1.6s2.8-0.5,3.6-1.6c0.8-1.1,1.2-2.6,1.2-4.7c0-2-0.4-3.6-1.2-4.7c-0.8-1.1-2-1.6-3.7-1.6c-1.6,0-2.8,0.5-3.6,1.6
		S326.6,16,326.6,18z"/>
	<path class="st0" d="M345.4,10v10.4c0,1.3,0.3,2.3,0.9,2.9s1.5,1,2.8,1c1.7,0,2.9-0.5,3.7-1.4c0.8-0.9,1.2-2.4,1.2-4.5V10h2.4v16.1
		h-2l-0.4-2.2h-0.1c-0.5,0.8-1.2,1.4-2.1,1.8c-0.9,0.4-1.9,0.6-3,0.6c-2,0-3.4-0.5-4.4-1.4c-1-0.9-1.5-2.4-1.5-4.5V10H345.4z"/>
	<path class="st0" d="M364,26.1h-2.4V3.3h2.4V26.1z"/>
	<path class="st0" d="M383,18c0,2.6-0.7,4.7-2,6.1s-3.1,2.2-5.5,2.2c-1.4,0-2.7-0.3-3.8-1s-2-1.6-2.6-2.9s-0.9-2.7-0.9-4.4
		c0-2.6,0.7-4.7,2-6.1s3.1-2.2,5.4-2.2c2.2,0,4,0.7,5.4,2.2C382.3,13.5,383,15.5,383,18z M370.7,18c0,2.1,0.4,3.6,1.2,4.7
		s2,1.6,3.6,1.6s2.8-0.5,3.6-1.6c0.8-1.1,1.2-2.6,1.2-4.7c0-2-0.4-3.6-1.2-4.7c-0.8-1.1-2-1.6-3.7-1.6c-1.6,0-2.8,0.5-3.6,1.6
		S370.7,16,370.7,18z"/>
	<path class="st0" d="M407.7,26.1V15.6c0-1.3-0.3-2.2-0.8-2.9s-1.4-1-2.5-1c-1.5,0-2.6,0.4-3.4,1.3s-1.1,2.2-1.1,4v9h-2.4V15.6
		c0-1.3-0.3-2.2-0.8-2.9s-1.4-1-2.6-1c-1.5,0-2.6,0.5-3.3,1.4c-0.7,0.9-1.1,2.4-1.1,4.5v8.4h-2.4V10h2l0.4,2.2h0.1
		c0.5-0.8,1.1-1.4,1.9-1.8c0.8-0.4,1.8-0.7,2.8-0.7c2.5,0,4.2,0.9,4.9,2.7h0.1c0.5-0.8,1.2-1.5,2.1-2s1.9-0.7,3.1-0.7
		c1.8,0,3.2,0.5,4.1,1.4c0.9,0.9,1.4,2.4,1.4,4.5v10.5H407.7z"/>
	<path class="st0" d="M422.6,9.8c2.1,0,3.7,0.7,4.9,2.2c1.2,1.4,1.8,3.5,1.8,6.1s-0.6,4.7-1.8,6.1c-1.2,1.5-2.8,2.2-4.9,2.2
		c-1,0-2-0.2-2.9-0.6c-0.9-0.4-1.6-1-2.2-1.8h-0.2l-0.5,2.1h-1.7V3.3h2.4v5.5c0,1.2,0,2.4-0.1,3.3h0.1
		C418.7,10.6,420.4,9.8,422.6,9.8z M422.3,11.8c-1.7,0-2.9,0.5-3.6,1.4s-1.1,2.6-1.1,4.8s0.4,3.9,1.1,4.8s2,1.5,3.6,1.5
		c1.5,0,2.6-0.5,3.3-1.6s1.1-2.7,1.1-4.7c0-2.1-0.4-3.6-1.1-4.7S423.8,11.8,422.3,11.8z"/>
	<path class="st0" d="M440.3,26.4c-2.4,0-4.2-0.7-5.6-2.2c-1.4-1.4-2.1-3.5-2.1-6c0-2.6,0.6-4.6,1.9-6.2c1.3-1.5,3-2.3,5.1-2.3
		c2,0,3.6,0.7,4.8,2s1.8,3.1,1.8,5.2v1.5h-11.1c0,1.9,0.5,3.3,1.4,4.3c0.9,1,2.2,1.5,3.8,1.5c1.7,0,3.4-0.4,5.1-1.1v2.2
		c-0.9,0.4-1.7,0.6-2.4,0.8C442.3,26.3,441.4,26.4,440.3,26.4z M439.7,11.8c-1.3,0-2.3,0.4-3.1,1.3c-0.8,0.8-1.2,2-1.4,3.5h8.4
		c0-1.5-0.3-2.7-1-3.5S440.9,11.8,439.7,11.8z"/>
	<path class="st0" d="M464.9,26.4c-2.4,0-4.2-0.7-5.6-2.2c-1.4-1.4-2.1-3.5-2.1-6c0-2.6,0.6-4.6,1.9-6.2c1.3-1.5,3-2.3,5.1-2.3
		c2,0,3.6,0.7,4.8,2s1.8,3.1,1.8,5.2v1.5h-11.1c0,1.9,0.5,3.3,1.4,4.3c0.9,1,2.2,1.5,3.8,1.5c1.7,0,3.4-0.4,5.1-1.1v2.2
		c-0.9,0.4-1.7,0.6-2.4,0.8C466.9,26.3,466,26.4,464.9,26.4z M464.3,11.8c-1.3,0-2.3,0.4-3.1,1.3c-0.8,0.8-1.2,2-1.4,3.5h8.4
		c0-1.5-0.3-2.7-1-3.5S465.5,11.8,464.3,11.8z"/>
	<path class="st0" d="M480.2,24.4c0.4,0,0.8,0,1.2-0.1s0.7-0.1,1-0.2v1.9c-0.3,0.1-0.7,0.2-1.2,0.3c-0.5,0.1-1,0.1-1.4,0.1
		c-3.1,0-4.7-1.6-4.7-4.9v-9.6h-2.3v-1.2l2.3-1l1-3.4h1.4V10h4.7v1.9h-4.7v9.4c0,1,0.2,1.7,0.7,2.2S479.4,24.4,480.2,24.4z"/>
	<path class="st0" d="M491.4,33.3c-0.9,0-1.7-0.1-2.3-0.4v-2c0.7,0.2,1.3,0.3,2,0.3c0.8,0,1.3-0.2,1.7-0.6c0.4-0.4,0.5-1,0.5-1.9V10
		h2.4v18.5C495.8,31.7,494.3,33.3,491.4,33.3z M493.2,5.7c0-0.6,0.1-1,0.4-1.2s0.6-0.4,1-0.4c0.4,0,0.7,0.1,1,0.4s0.4,0.7,0.4,1.2
		s-0.1,1-0.4,1.2s-0.6,0.4-1,0.4c-0.4,0-0.8-0.1-1-0.4S493.2,6.2,493.2,5.7z"/>
	<path class="st0" d="M507.7,26.4c-2.4,0-4.2-0.7-5.6-2.2c-1.4-1.4-2.1-3.5-2.1-6c0-2.6,0.6-4.6,1.9-6.2c1.3-1.5,3-2.3,5.1-2.3
		c2,0,3.6,0.7,4.8,2s1.8,3.1,1.8,5.2v1.5h-11.1c0,1.9,0.5,3.3,1.4,4.3c0.9,1,2.2,1.5,3.8,1.5c1.7,0,3.4-0.4,5.1-1.1v2.2
		c-0.9,0.4-1.7,0.6-2.4,0.8C509.7,26.3,508.8,26.4,507.7,26.4z M507.1,11.8c-1.3,0-2.3,0.4-3.1,1.3c-0.8,0.8-1.2,2-1.4,3.5h8.4
		c0-1.5-0.3-2.7-1-3.5S508.3,11.8,507.1,11.8z"/>
	<path class="st0" d="M535.9,21.7c0,1.5-0.6,2.6-1.7,3.5s-2.7,1.2-4.7,1.2c-2.1,0-3.8-0.3-5-1v-2.3c0.8,0.4,1.6,0.7,2.5,0.9
		c0.9,0.2,1.7,0.3,2.6,0.3c1.3,0,2.2-0.2,2.9-0.6s1-1,1-1.9c0-0.6-0.3-1.2-0.8-1.6c-0.5-0.4-1.6-1-3.2-1.6c-1.5-0.6-2.6-1-3.2-1.5
		c-0.6-0.4-1.1-0.9-1.4-1.4c-0.3-0.5-0.5-1.2-0.5-1.9c0-1.3,0.5-2.3,1.6-3.1s2.5-1.1,4.4-1.1c1.7,0,3.4,0.4,5.1,1.1l-0.9,2
		c-1.6-0.7-3.1-1-4.4-1c-1.2,0-2,0.2-2.6,0.5s-0.9,0.9-0.9,1.5c0,0.4,0.1,0.8,0.3,1.1c0.2,0.3,0.6,0.6,1.1,0.9
		c0.5,0.3,1.4,0.7,2.8,1.2c1.9,0.7,3.2,1.4,3.9,2.1C535.6,19.7,535.9,20.6,535.9,21.7z"/>
	<path class="st0" d="M542.2,10v10.4c0,1.3,0.3,2.3,0.9,2.9s1.5,1,2.8,1c1.7,0,2.9-0.5,3.7-1.4c0.8-0.9,1.2-2.4,1.2-4.5V10h2.4v16.1
		h-2l-0.4-2.2h-0.1c-0.5,0.8-1.2,1.4-2.1,1.8c-0.9,0.4-1.9,0.6-3,0.6c-2,0-3.4-0.5-4.4-1.4c-1-0.9-1.5-2.4-1.5-4.5V10H542.2z"/>
	<path class="st0" d="M558.1,5.7c0-0.6,0.1-1,0.4-1.2s0.6-0.4,1-0.4c0.4,0,0.7,0.1,1,0.4s0.4,0.7,0.4,1.2s-0.1,1-0.4,1.2
		s-0.6,0.4-1,0.4c-0.4,0-0.8-0.1-1-0.4S558.1,6.2,558.1,5.7z M560.7,26.1h-2.4V10h2.4V26.1z"/>
	<path class="st0" d="M576.2,21.7c0,1.5-0.6,2.6-1.7,3.5s-2.7,1.2-4.7,1.2c-2.1,0-3.8-0.3-5-1v-2.3c0.8,0.4,1.6,0.7,2.5,0.9
		c0.9,0.2,1.7,0.3,2.6,0.3c1.3,0,2.2-0.2,2.9-0.6s1-1,1-1.9c0-0.6-0.3-1.2-0.8-1.6c-0.5-0.4-1.6-1-3.2-1.6c-1.5-0.6-2.6-1-3.2-1.5
		c-0.6-0.4-1.1-0.9-1.4-1.4c-0.3-0.5-0.5-1.2-0.5-1.9c0-1.3,0.5-2.3,1.6-3.1s2.5-1.1,4.4-1.1c1.7,0,3.4,0.4,5.1,1.1l-0.9,2
		c-1.6-0.7-3.1-1-4.4-1c-1.2,0-2,0.2-2.6,0.5s-0.9,0.9-0.9,1.5c0,0.4,0.1,0.8,0.3,1.1c0.2,0.3,0.6,0.6,1.1,0.9
		c0.5,0.3,1.4,0.7,2.8,1.2c1.9,0.7,3.2,1.4,3.9,2.1C575.9,19.7,576.2,20.6,576.2,21.7z"/>
	<path class="st0" d="M18.5,62.4c-1,0-2-0.2-2.9-0.6c-0.9-0.4-1.6-1-2.2-1.8h-0.2c0.1,0.9,0.2,1.8,0.2,2.7v6.6h-2.4V46h2l0.3,2.2
		h0.1c0.6-0.9,1.4-1.5,2.2-1.9s1.8-0.6,2.9-0.6c2.1,0,3.8,0.7,4.9,2.2c1.2,1.5,1.7,3.5,1.7,6.1c0,2.6-0.6,4.7-1.8,6.1
		C22.2,61.6,20.6,62.4,18.5,62.4z M18.2,47.8c-1.6,0-2.8,0.5-3.6,1.4s-1.1,2.4-1.1,4.3V54c0,2.3,0.4,3.9,1.1,4.8s2,1.5,3.6,1.5
		c1.4,0,2.5-0.6,3.3-1.7c0.8-1.1,1.2-2.7,1.2-4.6c0-2-0.4-3.5-1.2-4.6C20.7,48.3,19.6,47.8,18.2,47.8z"/>
	<path class="st0" d="M39.3,62.1l-0.5-2.3h-0.1c-0.8,1-1.6,1.7-2.4,2s-1.8,0.5-3,0.5c-1.6,0-2.8-0.4-3.7-1.2c-0.9-0.8-1.4-2-1.4-3.5
		c0-3.2,2.6-4.9,7.8-5.1l2.7-0.1v-1c0-1.3-0.3-2.2-0.8-2.8c-0.5-0.6-1.4-0.9-2.6-0.9c-1.3,0-2.9,0.4-4.5,1.2L30,47.1
		c0.8-0.4,1.7-0.8,2.6-1c0.9-0.2,1.9-0.4,2.8-0.4c1.9,0,3.3,0.4,4.3,1.3c0.9,0.8,1.4,2.2,1.4,4.1v11H39.3z M33.8,60.4
		c1.5,0,2.7-0.4,3.6-1.2c0.9-0.8,1.3-2,1.3-3.5v-1.5l-2.4,0.1c-1.9,0.1-3.3,0.4-4.2,0.9s-1.3,1.4-1.3,2.5c0,0.9,0.3,1.5,0.8,2
		C32.1,60.1,32.9,60.4,33.8,60.4z"/>
	<path class="st0" d="M56.5,57.7c0,1.5-0.6,2.6-1.7,3.5s-2.7,1.2-4.7,1.2c-2.1,0-3.8-0.3-5-1v-2.3c0.8,0.4,1.6,0.7,2.5,0.9
		c0.9,0.2,1.7,0.3,2.6,0.3c1.3,0,2.2-0.2,2.9-0.6s1-1,1-1.9c0-0.6-0.3-1.2-0.8-1.6c-0.5-0.4-1.6-1-3.2-1.6c-1.5-0.6-2.6-1-3.2-1.5
		c-0.6-0.4-1.1-0.9-1.4-1.4c-0.3-0.5-0.5-1.2-0.5-1.9c0-1.3,0.5-2.3,1.6-3.1s2.5-1.1,4.4-1.1c1.7,0,3.4,0.4,5.1,1.1l-0.9,2
		c-1.6-0.7-3.1-1-4.4-1c-1.2,0-2,0.2-2.6,0.5s-0.9,0.9-0.9,1.5c0,0.4,0.1,0.8,0.3,1.1c0.2,0.3,0.6,0.6,1.1,0.9s1.4,0.7,2.8,1.2
		c1.9,0.7,3.2,1.4,3.9,2.1C56.1,55.7,56.5,56.6,56.5,57.7z"/>
	<path class="st0" d="M70.8,57.7c0,1.5-0.6,2.6-1.7,3.5s-2.7,1.2-4.7,1.2c-2.1,0-3.8-0.3-5-1v-2.3c0.8,0.4,1.6,0.7,2.5,0.9
		c0.9,0.2,1.7,0.3,2.6,0.3c1.3,0,2.2-0.2,2.9-0.6s1-1,1-1.9c0-0.6-0.3-1.2-0.8-1.6c-0.5-0.4-1.6-1-3.2-1.6c-1.5-0.6-2.6-1-3.2-1.5
		c-0.6-0.4-1.1-0.9-1.4-1.4c-0.3-0.5-0.5-1.2-0.5-1.9c0-1.3,0.5-2.3,1.6-3.1s2.5-1.1,4.4-1.1c1.7,0,3.4,0.4,5.1,1.1l-0.9,2
		c-1.6-0.7-3.1-1-4.4-1c-1.2,0-2,0.2-2.6,0.5s-0.9,0.9-0.9,1.5c0,0.4,0.1,0.8,0.3,1.1c0.2,0.3,0.6,0.6,1.1,0.9s1.4,0.7,2.8,1.2
		c1.9,0.7,3.2,1.4,3.9,2.1C70.5,55.7,70.8,56.6,70.8,57.7z"/>
	<path class="st0" d="M74.5,41.7c0-0.6,0.1-1,0.4-1.2s0.6-0.4,1-0.4c0.4,0,0.7,0.1,1,0.4s0.4,0.7,0.4,1.2s-0.1,1-0.4,1.2
		s-0.6,0.4-1,0.4c-0.4,0-0.8-0.1-1-0.4S74.5,42.2,74.5,41.7z M77.2,62.1h-2.4V46h2.4V62.1z"/>
	<path class="st0" d="M96.2,54c0,2.6-0.7,4.7-2,6.1s-3.1,2.2-5.5,2.2c-1.4,0-2.7-0.3-3.8-1s-2-1.6-2.6-2.9s-0.9-2.7-0.9-4.4
		c0-2.6,0.7-4.7,2-6.1s3.1-2.2,5.4-2.2c2.2,0,4,0.7,5.4,2.2C95.5,49.5,96.2,51.5,96.2,54z M84,54c0,2.1,0.4,3.6,1.2,4.7
		s2,1.6,3.6,1.6s2.8-0.5,3.6-1.6s1.2-2.6,1.2-4.7c0-2-0.4-3.6-1.2-4.7s-2-1.6-3.7-1.6c-1.6,0-2.8,0.5-3.6,1.6S84,52,84,54z"/>
	<path class="st0" d="M111.4,62.1V51.7c0-1.3-0.3-2.3-0.9-2.9s-1.5-1-2.8-1c-1.7,0-2.9,0.5-3.7,1.4s-1.2,2.4-1.2,4.5v8.4h-2.4V46h2
		l0.4,2.2h0.1c0.5-0.8,1.2-1.4,2.1-1.8s1.9-0.7,3-0.7c1.9,0,3.4,0.5,4.4,1.4s1.5,2.4,1.5,4.5v10.5H111.4z"/>
	<path class="st0" d="M129.9,62.1V51.7c0-1.3-0.3-2.3-0.9-2.9s-1.5-1-2.8-1c-1.7,0-2.9,0.5-3.7,1.4s-1.2,2.4-1.2,4.5v8.4h-2.4V46h2
		l0.4,2.2h0.1c0.5-0.8,1.2-1.4,2.1-1.8s1.9-0.7,3-0.7c1.9,0,3.4,0.5,4.4,1.4s1.5,2.4,1.5,4.5v10.5H129.9z"/>
	<path class="st0" d="M144.1,62.4c-2.4,0-4.2-0.7-5.6-2.2s-2.1-3.5-2.1-6c0-2.6,0.6-4.6,1.9-6.2c1.3-1.5,3-2.3,5.1-2.3
		c2,0,3.6,0.7,4.8,2s1.8,3.1,1.8,5.2v1.5h-11.1c0,1.9,0.5,3.3,1.4,4.3c0.9,1,2.2,1.5,3.8,1.5c1.7,0,3.4-0.4,5.1-1.1v2.2
		c-0.9,0.4-1.7,0.6-2.4,0.8C146.1,62.3,145.1,62.4,144.1,62.4z M143.4,47.8c-1.3,0-2.3,0.4-3.1,1.3s-1.2,2-1.4,3.5h8.4
		c0-1.5-0.3-2.7-1-3.5S144.7,47.8,143.4,47.8z M141.6,43.5c0.5-0.6,1-1.3,1.5-2.2c0.5-0.9,1-1.6,1.3-2.2h3v0.3
		c-0.4,0.6-1.1,1.4-1.9,2.3s-1.6,1.6-2.2,2.2h-1.6V43.5z"/>
	<path class="st0" d="M169.4,62.4c-1,0-2-0.2-2.9-0.6c-0.9-0.4-1.6-1-2.2-1.8h-0.2c0.1,0.9,0.2,1.8,0.2,2.7v6.6h-2.4V46h2l0.3,2.2
		h0.1c0.6-0.9,1.4-1.5,2.2-1.9s1.8-0.6,2.9-0.6c2.1,0,3.8,0.7,4.9,2.2c1.2,1.5,1.7,3.5,1.7,6.1c0,2.6-0.6,4.7-1.8,6.1
		C173.1,61.6,171.5,62.4,169.4,62.4z M169,47.8c-1.6,0-2.8,0.5-3.6,1.4s-1.1,2.4-1.1,4.3V54c0,2.3,0.4,3.9,1.1,4.8s2,1.5,3.6,1.5
		c1.4,0,2.5-0.6,3.3-1.7c0.8-1.1,1.2-2.7,1.2-4.6c0-2-0.4-3.5-1.2-4.6C171.6,48.3,170.4,47.8,169,47.8z"/>
	<path class="st0" d="M190.2,62.1l-0.5-2.3h-0.1c-0.8,1-1.6,1.7-2.4,2s-1.8,0.5-3,0.5c-1.6,0-2.8-0.4-3.7-1.2
		c-0.9-0.8-1.4-2-1.4-3.5c0-3.2,2.6-4.9,7.8-5.1l2.7-0.1v-1c0-1.3-0.3-2.2-0.8-2.8c-0.5-0.6-1.4-0.9-2.6-0.9c-1.3,0-2.9,0.4-4.5,1.2
		l-0.7-1.9c0.8-0.4,1.7-0.8,2.6-1c0.9-0.2,1.9-0.4,2.8-0.4c1.9,0,3.3,0.4,4.3,1.3c0.9,0.8,1.4,2.2,1.4,4.1v11H190.2z M184.7,60.4
		c1.5,0,2.7-0.4,3.6-1.2c0.9-0.8,1.3-2,1.3-3.5v-1.5l-2.4,0.1c-1.9,0.1-3.3,0.4-4.2,0.9s-1.3,1.4-1.3,2.5c0,0.9,0.3,1.5,0.8,2
		C183,60.1,183.7,60.4,184.7,60.4z"/>
	<path class="st0" d="M204.3,45.7c0.7,0,1.4,0.1,1.9,0.2l-0.3,2.3c-0.7-0.1-1.3-0.2-1.8-0.2c-1.3,0-2.4,0.5-3.3,1.6
		c-0.9,1.1-1.4,2.4-1.4,3.9v8.6H197V46h2l0.3,3h0.1c0.6-1,1.3-1.9,2.2-2.4S203.3,45.7,204.3,45.7z"/>
	<path class="st0" d="M219.4,62.1H217V39.3h2.4V62.1z"/>
	<path class="st0" d="M231.4,62.4c-2.4,0-4.2-0.7-5.6-2.2s-2.1-3.5-2.1-6c0-2.6,0.6-4.6,1.9-6.2c1.3-1.5,3-2.3,5.1-2.3
		c2,0,3.6,0.7,4.8,2s1.8,3.1,1.8,5.2v1.5h-11.1c0,1.9,0.5,3.3,1.4,4.3c0.9,1,2.2,1.5,3.8,1.5c1.7,0,3.4-0.4,5.1-1.1v2.2
		c-0.9,0.4-1.7,0.6-2.4,0.8C233.4,62.3,232.5,62.4,231.4,62.4z M230.7,47.8c-1.3,0-2.3,0.4-3.1,1.3s-1.2,2-1.4,3.5h8.4
		c0-1.5-0.3-2.7-1-3.5S232,47.8,230.7,47.8z"/>
	<path class="st0" d="M260.2,59.9H260c-1.1,1.6-2.8,2.4-5,2.4c-2.1,0-3.7-0.7-4.9-2.2c-1.2-1.4-1.8-3.5-1.8-6.1s0.6-4.7,1.8-6.2
		s2.8-2.2,4.9-2.2c2.2,0,3.8,0.8,5,2.4h0.2l-0.1-1.2l-0.1-1.1v-6.5h2.4v22.8h-2L260.2,59.9z M255.3,60.3c1.7,0,2.9-0.5,3.6-1.4
		c0.7-0.9,1.1-2.4,1.1-4.4v-0.5c0-2.3-0.4-3.9-1.1-4.9s-2-1.5-3.6-1.5c-1.4,0-2.5,0.6-3.3,1.7c-0.8,1.1-1.1,2.7-1.1,4.7
		c0,2.1,0.4,3.6,1.1,4.6S253.8,60.3,255.3,60.3z"/>
	<path class="st0" d="M274.4,62.4c-2.4,0-4.2-0.7-5.6-2.2s-2.1-3.5-2.1-6c0-2.6,0.6-4.6,1.9-6.2c1.3-1.5,3-2.3,5.1-2.3
		c2,0,3.6,0.7,4.8,2s1.8,3.1,1.8,5.2v1.5h-11.1c0,1.9,0.5,3.3,1.4,4.3c0.9,1,2.2,1.5,3.8,1.5c1.7,0,3.4-0.4,5.1-1.1v2.2
		c-0.9,0.4-1.7,0.6-2.4,0.8C276.4,62.3,275.5,62.4,274.4,62.4z M273.7,47.8c-1.3,0-2.3,0.4-3.1,1.3s-1.2,2-1.4,3.5h8.4
		c0-1.5-0.3-2.7-1-3.5S275,47.8,273.7,47.8z"/>
	<path class="st0" d="M294.8,57.7c0,1.5-0.6,2.6-1.7,3.5s-2.7,1.2-4.7,1.2c-2.1,0-3.8-0.3-5-1v-2.3c0.8,0.4,1.6,0.7,2.5,0.9
		c0.9,0.2,1.7,0.3,2.6,0.3c1.3,0,2.2-0.2,2.9-0.6s1-1,1-1.9c0-0.6-0.3-1.2-0.8-1.6c-0.5-0.4-1.6-1-3.2-1.6c-1.5-0.6-2.6-1-3.2-1.5
		c-0.6-0.4-1.1-0.9-1.4-1.4c-0.3-0.5-0.5-1.2-0.5-1.9c0-1.3,0.5-2.3,1.6-3.1s2.5-1.1,4.4-1.1c1.7,0,3.4,0.4,5.1,1.1l-0.9,2
		c-1.6-0.7-3.1-1-4.4-1c-1.2,0-2,0.2-2.6,0.5s-0.9,0.9-0.9,1.5c0,0.4,0.1,0.8,0.3,1.1c0.2,0.3,0.6,0.6,1.1,0.9s1.4,0.7,2.8,1.2
		c1.9,0.7,3.2,1.4,3.9,2.1C294.5,55.7,294.8,56.6,294.8,57.7z"/>
	<path class="st0" d="M298.5,41.7c0-0.6,0.1-1,0.4-1.2s0.6-0.4,1-0.4c0.4,0,0.7,0.1,1,0.4s0.4,0.7,0.4,1.2s-0.1,1-0.4,1.2
		s-0.6,0.4-1,0.4c-0.4,0-0.8-0.1-1-0.4S298.5,42.2,298.5,41.7z M301.2,62.1h-2.4V46h2.4V62.1z"/>
	<path class="st0" d="M319.5,46v1.5l-3,0.4c0.3,0.3,0.5,0.8,0.7,1.3s0.3,1.2,0.3,1.9c0,1.6-0.5,2.8-1.6,3.8s-2.5,1.4-4.4,1.4
		c-0.5,0-0.9,0-1.3-0.1c-1,0.5-1.6,1.2-1.6,2.1c0,0.4,0.2,0.8,0.5,1s1,0.3,1.9,0.3h2.8c1.7,0,3.1,0.4,4,1.1c0.9,0.7,1.4,1.8,1.4,3.2
		c0,1.8-0.7,3.1-2.1,4.1s-3.5,1.4-6.2,1.4c-2.1,0-3.7-0.4-4.9-1.2c-1.1-0.8-1.7-1.9-1.7-3.3c0-1,0.3-1.8,0.9-2.5
		c0.6-0.7,1.5-1.2,2.6-1.5c-0.4-0.2-0.8-0.5-1-0.9c-0.3-0.4-0.4-0.8-0.4-1.4c0-0.6,0.2-1.1,0.5-1.5s0.8-0.9,1.5-1.3
		c-0.8-0.3-1.5-0.9-2-1.7c-0.5-0.8-0.8-1.8-0.8-2.8c0-1.8,0.5-3.1,1.6-4.1s2.5-1.4,4.5-1.4c0.8,0,1.6,0.1,2.3,0.3H319.5z
		 M306.7,64.8c0,0.9,0.4,1.5,1.1,2s1.8,0.7,3.2,0.7c2,0,3.6-0.3,4.5-0.9c1-0.6,1.5-1.4,1.5-2.5c0-0.9-0.3-1.5-0.8-1.8
		s-1.5-0.5-3-0.5h-2.9c-1.1,0-2,0.3-2.6,0.8S306.7,63.8,306.7,64.8z M308,51.2c0,1.1,0.3,2,1,2.5s1.5,0.9,2.7,0.9
		c2.4,0,3.6-1.2,3.6-3.5c0-2.4-1.2-3.6-3.6-3.6c-1.1,0-2,0.3-2.6,0.9S308,50,308,51.2z"/>
	<path class="st0" d="M333.8,62.1V51.7c0-1.3-0.3-2.3-0.9-2.9s-1.5-1-2.8-1c-1.7,0-2.9,0.5-3.7,1.4s-1.2,2.4-1.2,4.5v8.4h-2.4V46h2
		l0.4,2.2h0.1c0.5-0.8,1.2-1.4,2.1-1.8s1.9-0.7,3-0.7c1.9,0,3.4,0.5,4.4,1.4s1.5,2.4,1.5,4.5v10.5H333.8z"/>
	<path class="st0" d="M355.8,62.4c-2.4,0-4.2-0.7-5.6-2.2c-1.4-1.4-2.1-3.5-2.1-6c0-2.6,0.6-4.6,1.9-6.2c1.3-1.5,3-2.3,5.1-2.3
		c2,0,3.6,0.7,4.8,2s1.8,3.1,1.8,5.2v1.5h-11.1c0,1.9,0.5,3.3,1.4,4.3c0.9,1,2.2,1.5,3.8,1.5c1.7,0,3.4-0.4,5.1-1.1v2.2
		c-0.9,0.4-1.7,0.6-2.4,0.8C357.8,62.3,356.8,62.4,355.8,62.4z M355.1,47.8c-1.3,0-2.3,0.4-3.1,1.3c-0.8,0.8-1.2,2-1.4,3.5h8.4
		c0-1.5-0.3-2.7-1-3.5S356.4,47.8,355.1,47.8z"/>
	<path class="st0" d="M371,60.4c0.4,0,0.8,0,1.2-0.1s0.7-0.1,1-0.2v1.9c-0.3,0.1-0.7,0.2-1.2,0.3c-0.5,0.1-1,0.1-1.4,0.1
		c-3.1,0-4.7-1.6-4.7-4.9v-9.6h-2.3v-1.2l2.3-1l1-3.4h1.4V46h4.7v1.9h-4.7v9.4c0,1,0.2,1.7,0.7,2.2S370.2,60.4,371,60.4z"/>
	<path class="st0" d="M386.6,62.1h-2.4V39.3h2.4V62.1z"/>
	<path class="st0" d="M393.9,40.7l-0.6,7.7h-1.5l-0.6-7.7H393.9z"/>
	<path class="st0" d="M398.2,41.7c0-0.6,0.1-1,0.4-1.2s0.6-0.4,1-0.4c0.4,0,0.7,0.1,1,0.4s0.4,0.7,0.4,1.2s-0.1,1-0.4,1.2
		s-0.6,0.4-1,0.4c-0.4,0-0.8-0.1-1-0.4S398.2,42.2,398.2,41.7z M400.8,62.1h-2.4V46h2.4V62.1z"/>
	<path class="st0" d="M417,62.1V51.7c0-1.3-0.3-2.3-0.9-2.9s-1.5-1-2.8-1c-1.7,0-2.9,0.5-3.7,1.4s-1.2,2.4-1.2,4.5v8.4H406V46h2
		l0.4,2.2h0.1c0.5-0.8,1.2-1.4,2.1-1.8s1.9-0.7,3-0.7c1.9,0,3.4,0.5,4.4,1.4s1.5,2.4,1.5,4.5v10.5H417z"/>
	<path class="st0" d="M429.6,60.4c0.4,0,0.8,0,1.2-0.1s0.7-0.1,1-0.2v1.9c-0.3,0.1-0.7,0.2-1.2,0.3c-0.5,0.1-1,0.1-1.4,0.1
		c-3.1,0-4.7-1.6-4.7-4.9v-9.6h-2.3v-1.2l2.3-1l1-3.4h1.4V46h4.7v1.9H427v9.4c0,1,0.2,1.7,0.7,2.2S428.8,60.4,429.6,60.4z"/>
	<path class="st0" d="M441.8,62.4c-2.4,0-4.2-0.7-5.6-2.2c-1.4-1.4-2.1-3.5-2.1-6c0-2.6,0.6-4.6,1.9-6.2c1.3-1.5,3-2.3,5.1-2.3
		c2,0,3.6,0.7,4.8,2s1.8,3.1,1.8,5.2v1.5h-11.1c0,1.9,0.5,3.3,1.4,4.3c0.9,1,2.2,1.5,3.8,1.5c1.7,0,3.4-0.4,5.1-1.1v2.2
		c-0.9,0.4-1.7,0.6-2.4,0.8C443.8,62.3,442.9,62.4,441.8,62.4z M441.1,47.8c-1.3,0-2.3,0.4-3.1,1.3c-0.8,0.8-1.2,2-1.4,3.5h8.4
		c0-1.5-0.3-2.7-1-3.5S442.4,47.8,441.1,47.8z M439.3,43.5c0.5-0.6,1-1.3,1.5-2.2c0.5-0.9,1-1.6,1.3-2.2h3v0.3
		c-0.4,0.6-1.1,1.4-1.9,2.3s-1.6,1.6-2.2,2.2h-1.6V43.5z"/>
	<path class="st0" d="M459.2,45.7c0.7,0,1.4,0.1,1.9,0.2l-0.3,2.3c-0.7-0.1-1.3-0.2-1.8-0.2c-1.3,0-2.4,0.5-3.3,1.6
		c-0.9,1.1-1.4,2.4-1.4,3.9v8.6h-2.4V46h2l0.3,3h0.1c0.6-1,1.3-1.9,2.2-2.4S458.2,45.7,459.2,45.7z"/>
	<path class="st0" d="M474,62.1l-0.5-2.3h-0.1c-0.8,1-1.6,1.7-2.4,2c-0.8,0.4-1.8,0.5-3,0.5c-1.6,0-2.8-0.4-3.7-1.2
		c-0.9-0.8-1.4-2-1.4-3.5c0-3.2,2.6-4.9,7.8-5.1l2.7-0.1v-1c0-1.3-0.3-2.2-0.8-2.8c-0.5-0.6-1.4-0.9-2.6-0.9c-1.3,0-2.9,0.4-4.5,1.2
		l-0.7-1.9c0.8-0.4,1.7-0.8,2.6-1c0.9-0.2,1.9-0.4,2.8-0.4c1.9,0,3.3,0.4,4.3,1.3c0.9,0.8,1.4,2.2,1.4,4.1v11H474z M468.5,60.4
		c1.5,0,2.7-0.4,3.6-1.2c0.9-0.8,1.3-2,1.3-3.5v-1.5l-2.4,0.1c-1.9,0.1-3.3,0.4-4.2,0.9c-0.9,0.5-1.3,1.4-1.3,2.5
		c0,0.9,0.3,1.5,0.8,2C466.8,60.1,467.5,60.4,468.5,60.4z"/>
	<path class="st0" d="M487.2,62.4c-2.3,0-4.1-0.7-5.4-2.1c-1.3-1.4-1.9-3.5-1.9-6.1c0-2.7,0.6-4.8,1.9-6.2c1.3-1.5,3.1-2.2,5.5-2.2
		c0.8,0,1.5,0.1,2.3,0.2s1.4,0.4,1.8,0.6l-0.7,2.1c-0.5-0.2-1.1-0.4-1.8-0.5s-1.2-0.2-1.7-0.2c-3.3,0-4.9,2.1-4.9,6.2
		c0,2,0.4,3.5,1.2,4.5c0.8,1.1,2,1.6,3.5,1.6c1.3,0,2.7-0.3,4.1-0.9v2.2C490.2,62.1,488.8,62.4,487.2,62.4z"/>
	<path class="st0" d="M500.2,60.4c0.4,0,0.8,0,1.2-0.1s0.7-0.1,1-0.2v1.9c-0.3,0.1-0.7,0.2-1.2,0.3c-0.5,0.1-1,0.1-1.4,0.1
		c-3.1,0-4.7-1.6-4.7-4.9v-9.6h-2.3v-1.2l2.3-1l1-3.4h1.4V46h4.7v1.9h-4.7v9.4c0,1,0.2,1.7,0.7,2.2S499.4,60.4,500.2,60.4z"/>
	<path class="st0" d="M505.4,41.7c0-0.6,0.1-1,0.4-1.2s0.6-0.4,1-0.4c0.4,0,0.7,0.1,1,0.4s0.4,0.7,0.4,1.2s-0.1,1-0.4,1.2
		s-0.6,0.4-1,0.4c-0.4,0-0.8-0.1-1-0.4S505.4,42.2,505.4,41.7z M508.1,62.1h-2.4V46h2.4V62.1z"/>
	<path class="st0" d="M516.7,62.1L510.7,46h2.6l3.5,9.5c0.8,2.2,1.2,3.7,1.4,4.3h0.1c0.1-0.5,0.4-1.6,1-3.2
		c0.6-1.6,1.9-5.2,3.8-10.6h2.6l-6.1,16.1H516.7z"/>
	<path class="st0" d="M528.1,41.7c0-0.6,0.1-1,0.4-1.2s0.6-0.4,1-0.4c0.4,0,0.7,0.1,1,0.4s0.4,0.7,0.4,1.2s-0.1,1-0.4,1.2
		s-0.6,0.4-1,0.4c-0.4,0-0.8-0.1-1-0.4S528.1,42.2,528.1,41.7z M530.7,62.1h-2.4V46h2.4V62.1z"/>
	<path class="st0" d="M541,60.4c0.4,0,0.8,0,1.2-0.1s0.7-0.1,1-0.2v1.9c-0.3,0.1-0.7,0.2-1.2,0.3c-0.5,0.1-1,0.1-1.4,0.1
		c-3.1,0-4.7-1.6-4.7-4.9v-9.6h-2.3v-1.2l2.3-1l1-3.4h1.4V46h4.7v1.9h-4.7v9.4c0,1,0.2,1.7,0.7,2.2S540.2,60.4,541,60.4z"/>
	<path class="st0" d="M553.2,62.4c-2.4,0-4.2-0.7-5.6-2.2c-1.4-1.4-2.1-3.5-2.1-6c0-2.6,0.6-4.6,1.9-6.2c1.3-1.5,3-2.3,5.1-2.3
		c2,0,3.6,0.7,4.8,2s1.8,3.1,1.8,5.2v1.5h-11.1c0,1.9,0.5,3.3,1.4,4.3c0.9,1,2.2,1.5,3.8,1.5c1.7,0,3.4-0.4,5.1-1.1v2.2
		c-0.9,0.4-1.7,0.6-2.4,0.8C555.2,62.3,554.3,62.4,553.2,62.4z M552.6,47.8c-1.3,0-2.3,0.4-3.1,1.3c-0.8,0.8-1.2,2-1.4,3.5h8.4
		c0-1.5-0.3-2.7-1-3.5S553.8,47.8,552.6,47.8z M550.8,43.5c0.5-0.6,1-1.3,1.5-2.2c0.5-0.9,1-1.6,1.3-2.2h3v0.3
		c-0.4,0.6-1.1,1.4-1.9,2.3s-1.6,1.6-2.2,2.2h-1.6V43.5z"/>
	<path class="st0" d="M562.9,60.5c0-0.7,0.1-1.1,0.4-1.5c0.3-0.3,0.7-0.5,1.3-0.5c0.6,0,1,0.2,1.3,0.5c0.3,0.3,0.5,0.8,0.5,1.5
		c0,0.6-0.2,1.1-0.5,1.5s-0.8,0.5-1.3,0.5c-0.5,0-0.9-0.2-1.2-0.5C563.1,61.7,562.9,61.2,562.9,60.5z"/>
	<path class="st0" d="M23.7,76.7h2.7l-7.7,21.4h-2.5L8.5,76.7h2.6L16,90.5c0.6,1.6,1,3.1,1.3,4.6c0.4-1.6,0.8-3.2,1.4-4.7L23.7,76.7
		z"/>
	<path class="st0" d="M28.7,77.7c0-0.6,0.1-1,0.4-1.2s0.6-0.4,1-0.4c0.4,0,0.7,0.1,1,0.4s0.4,0.7,0.4,1.2s-0.1,1-0.4,1.2
		s-0.6,0.4-1,0.4c-0.4,0-0.8-0.1-1-0.4S28.7,78.2,28.7,77.7z M31.3,98.1h-2.4V82h2.4V98.1z"/>
	<path class="st0" d="M40,98.1L33.9,82h2.6l3.5,9.5c0.8,2.2,1.2,3.7,1.4,4.3h0.1c0.1-0.5,0.4-1.6,1-3.2c0.6-1.6,1.9-5.2,3.8-10.6
		h2.6l-6.1,16.1H40z"/>
	<path class="st0" d="M61.4,98.1l-0.5-2.3h-0.1c-0.8,1-1.6,1.7-2.4,2s-1.8,0.5-3,0.5c-1.6,0-2.8-0.4-3.7-1.2c-0.9-0.8-1.4-2-1.4-3.5
		c0-3.2,2.6-4.9,7.8-5.1l2.7-0.1v-1c0-1.3-0.3-2.2-0.8-2.8c-0.5-0.6-1.4-0.9-2.6-0.9c-1.3,0-2.9,0.4-4.5,1.2l-0.7-1.9
		c0.8-0.4,1.7-0.8,2.6-1c0.9-0.2,1.9-0.4,2.8-0.4c1.9,0,3.3,0.4,4.3,1.3c0.9,0.8,1.4,2.2,1.4,4.1v11H61.4z M55.9,96.4
		c1.5,0,2.7-0.4,3.6-1.2c0.9-0.8,1.3-2,1.3-3.5v-1.5l-2.4,0.1c-1.9,0.1-3.3,0.4-4.2,0.9s-1.3,1.4-1.3,2.5c0,0.9,0.3,1.5,0.8,2
		C54.2,96.1,55,96.4,55.9,96.4z"/>
	<path class="st0" d="M79.2,98.1V87.7c0-1.3-0.3-2.3-0.9-2.9s-1.5-1-2.8-1c-1.7,0-2.9,0.5-3.7,1.4s-1.2,2.4-1.2,4.5v8.4h-2.4V82h2
		l0.4,2.2h0.1c0.5-0.8,1.2-1.4,2.1-1.8s1.9-0.7,3-0.7c1.9,0,3.4,0.5,4.4,1.4s1.5,2.4,1.5,4.5v10.5H79.2z"/>
	<path class="st0" d="M91.8,96.4c0.4,0,0.8,0,1.2-0.1s0.7-0.1,1-0.2v1.9c-0.3,0.1-0.7,0.2-1.2,0.3c-0.5,0.1-1,0.1-1.4,0.1
		c-3.1,0-4.7-1.6-4.7-4.9v-9.6h-2.3v-1.2l2.3-1l1-3.4h1.4V82h4.7v1.9h-4.7v9.4c0,1,0.2,1.7,0.7,2.2S91,96.4,91.8,96.4z"/>
	<path class="st0" d="M111.8,98.4c-2.4,0-4.2-0.7-5.6-2.2s-2.1-3.5-2.1-6c0-2.6,0.6-4.6,1.9-6.2c1.3-1.5,3-2.3,5.1-2.3
		c2,0,3.6,0.7,4.8,2s1.8,3.1,1.8,5.2v1.5h-11.1c0,1.9,0.5,3.3,1.4,4.3c0.9,1,2.2,1.5,3.8,1.5c1.7,0,3.4-0.4,5.1-1.1v2.2
		c-0.9,0.4-1.7,0.6-2.4,0.8C113.8,98.3,112.9,98.4,111.8,98.4z M111.1,83.8c-1.3,0-2.3,0.4-3.1,1.3s-1.2,2-1.4,3.5h8.4
		c0-1.5-0.3-2.7-1-3.5S112.4,83.8,111.1,83.8z"/>
	<path class="st0" d="M127,96.4c0.4,0,0.8,0,1.2-0.1s0.7-0.1,1-0.2v1.9c-0.3,0.1-0.7,0.2-1.2,0.3c-0.5,0.1-1,0.1-1.4,0.1
		c-3.1,0-4.7-1.6-4.7-4.9v-9.6h-2.3v-1.2l2.3-1l1-3.4h1.4V82h4.7v1.9h-4.7v9.4c0,1,0.2,1.7,0.7,2.2S126.2,96.4,127,96.4z"/>
	<path class="st0" d="M145.4,96.4c0.4,0,0.8,0,1.2-0.1s0.7-0.1,1-0.2v1.9c-0.3,0.1-0.7,0.2-1.2,0.3c-0.5,0.1-1,0.1-1.4,0.1
		c-3.1,0-4.7-1.6-4.7-4.9v-9.6h-2.3v-1.2l2.3-1l1-3.4h1.4V82h4.7v1.9h-4.7v9.4c0,1,0.2,1.7,0.7,2.2S144.6,96.4,145.4,96.4z"/>
	<path class="st0" d="M158.1,81.7c0.7,0,1.4,0.1,1.9,0.2l-0.3,2.3c-0.7-0.1-1.3-0.2-1.8-0.2c-1.3,0-2.4,0.5-3.3,1.6
		c-0.9,1.1-1.4,2.4-1.4,3.9v8.6h-2.4V82h2l0.3,3h0.1c0.6-1,1.3-1.9,2.2-2.4S157.1,81.7,158.1,81.7z"/>
	<path class="st0" d="M172.9,98.1l-0.5-2.3h-0.1c-0.8,1-1.6,1.7-2.4,2s-1.8,0.5-3,0.5c-1.6,0-2.8-0.4-3.7-1.2
		c-0.9-0.8-1.4-2-1.4-3.5c0-3.2,2.6-4.9,7.8-5.1l2.7-0.1v-1c0-1.3-0.3-2.2-0.8-2.8c-0.5-0.6-1.4-0.9-2.6-0.9c-1.3,0-2.9,0.4-4.5,1.2
		l-0.7-1.9c0.8-0.4,1.7-0.8,2.6-1c0.9-0.2,1.9-0.4,2.8-0.4c1.9,0,3.3,0.4,4.3,1.3c0.9,0.8,1.4,2.2,1.4,4.1v11H172.9z M167.4,96.4
		c1.5,0,2.7-0.4,3.6-1.2c0.9-0.8,1.3-2,1.3-3.5v-1.5l-2.4,0.1c-1.9,0.1-3.3,0.4-4.2,0.9s-1.3,1.4-1.3,2.5c0,0.9,0.3,1.5,0.8,2
		C165.7,96.1,166.5,96.4,167.4,96.4z"/>
	<path class="st0" d="M183.3,98.1L177.2,82h2.6l3.5,9.5c0.8,2.2,1.2,3.7,1.4,4.3h0.1c0.1-0.5,0.4-1.6,1-3.2
		c0.6-1.6,1.9-5.2,3.8-10.6h2.6l-6.1,16.1H183.3z"/>
	<path class="st0" d="M204.6,98.1l-0.5-2.3H204c-0.8,1-1.6,1.7-2.4,2s-1.8,0.5-3,0.5c-1.6,0-2.8-0.4-3.7-1.2c-0.9-0.8-1.4-2-1.4-3.5
		c0-3.2,2.6-4.9,7.8-5.1l2.7-0.1v-1c0-1.3-0.3-2.2-0.8-2.8c-0.5-0.6-1.4-0.9-2.6-0.9c-1.3,0-2.9,0.4-4.5,1.2l-0.7-1.9
		c0.8-0.4,1.7-0.8,2.6-1c0.9-0.2,1.9-0.4,2.8-0.4c1.9,0,3.3,0.4,4.3,1.3c0.9,0.8,1.4,2.2,1.4,4.1v11H204.6z M199.2,96.4
		c1.5,0,2.7-0.4,3.6-1.2c0.9-0.8,1.3-2,1.3-3.5v-1.5l-2.4,0.1c-1.9,0.1-3.3,0.4-4.2,0.9s-1.3,1.4-1.3,2.5c0,0.9,0.3,1.5,0.8,2
		C197.5,96.1,198.2,96.4,199.2,96.4z"/>
	<path class="st0" d="M211.3,77.7c0-0.6,0.1-1,0.4-1.2s0.6-0.4,1-0.4c0.4,0,0.7,0.1,1,0.4s0.4,0.7,0.4,1.2s-0.1,1-0.4,1.2
		s-0.6,0.4-1,0.4c-0.4,0-0.8-0.1-1-0.4S211.3,78.2,211.3,77.7z M213.9,98.1h-2.4V82h2.4V98.1z"/>
	<path class="st0" d="M221.5,98.1H219V75.3h2.4V98.1z"/>
	<path class="st0" d="M229.1,98.1h-2.4V75.3h2.4V98.1z"/>
	<path class="st0" d="M244.1,98.1l-0.5-2.3h-0.1c-0.8,1-1.6,1.7-2.4,2s-1.8,0.5-3,0.5c-1.6,0-2.8-0.4-3.7-1.2
		c-0.9-0.8-1.4-2-1.4-3.5c0-3.2,2.6-4.9,7.8-5.1l2.7-0.1v-1c0-1.3-0.3-2.2-0.8-2.8c-0.5-0.6-1.4-0.9-2.6-0.9c-1.3,0-2.9,0.4-4.5,1.2
		l-0.7-1.9c0.8-0.4,1.7-0.8,2.6-1c0.9-0.2,1.9-0.4,2.8-0.4c1.9,0,3.3,0.4,4.3,1.3c0.9,0.8,1.4,2.2,1.4,4.1v11H244.1z M238.6,96.4
		c1.5,0,2.7-0.4,3.6-1.2c0.9-0.8,1.3-2,1.3-3.5v-1.5l-2.4,0.1c-1.9,0.1-3.3,0.4-4.2,0.9s-1.3,1.4-1.3,2.5c0,0.9,0.3,1.5,0.8,2
		C236.9,96.1,237.6,96.4,238.6,96.4z"/>
	<path class="st0" d="M261.9,98.1V87.7c0-1.3-0.3-2.3-0.9-2.9s-1.5-1-2.8-1c-1.7,0-2.9,0.5-3.7,1.4s-1.2,2.4-1.2,4.5v8.4h-2.4V82h2
		l0.4,2.2h0.1c0.5-0.8,1.2-1.4,2.1-1.8s1.9-0.7,3-0.7c1.9,0,3.4,0.5,4.4,1.4s1.5,2.4,1.5,4.5v10.5H261.9z"/>
	<path class="st0" d="M274.5,96.4c0.4,0,0.8,0,1.2-0.1s0.7-0.1,1-0.2v1.9c-0.3,0.1-0.7,0.2-1.2,0.3c-0.5,0.1-1,0.1-1.4,0.1
		c-3.1,0-4.7-1.6-4.7-4.9v-9.6h-2.3v-1.2l2.3-1l1-3.4h1.4V82h4.7v1.9h-4.7v9.4c0,1,0.2,1.7,0.7,2.2S273.7,96.4,274.5,96.4z"/>
	<path class="st0" d="M306.7,87.3c0,2.7-0.6,5-1.7,6.8c-1.1,1.8-2.7,3-4.7,3.7l5.1,5.3h-3.6l-4.2-4.8l-0.8,0c-3.2,0-5.6-1-7.3-2.9
		c-1.7-1.9-2.6-4.7-2.6-8.2c0-3.5,0.9-6.2,2.6-8.1s4.2-2.9,7.3-2.9c3.1,0,5.5,1,7.2,2.9C305.8,81.2,306.7,83.9,306.7,87.3z
		 M289.6,87.3c0,2.9,0.6,5.1,1.9,6.6s3,2.2,5.4,2.2c2.4,0,4.2-0.7,5.4-2.2s1.8-3.7,1.8-6.6c0-2.9-0.6-5.1-1.8-6.6
		c-1.2-1.5-3-2.2-5.4-2.2c-2.4,0-4.2,0.7-5.4,2.2S289.6,84.5,289.6,87.3z"/>
	<path class="st0" d="M313.4,82v10.4c0,1.3,0.3,2.3,0.9,2.9s1.5,1,2.8,1c1.7,0,2.9-0.5,3.7-1.4c0.8-0.9,1.2-2.4,1.2-4.5V82h2.4v16.1
		h-2l-0.4-2.2h-0.1c-0.5,0.8-1.2,1.4-2.1,1.8c-0.9,0.4-1.9,0.6-3,0.6c-2,0-3.4-0.5-4.4-1.4c-1-0.9-1.5-2.4-1.5-4.5V82H313.4z"/>
	<path class="st0" d="M336.3,98.4c-2.4,0-4.2-0.7-5.6-2.2c-1.4-1.4-2.1-3.5-2.1-6c0-2.6,0.6-4.6,1.9-6.2c1.3-1.5,3-2.3,5.1-2.3
		c2,0,3.6,0.7,4.8,2s1.8,3.1,1.8,5.2v1.5h-11.1c0,1.9,0.5,3.3,1.4,4.3c0.9,1,2.2,1.5,3.8,1.5c1.7,0,3.4-0.4,5.1-1.1v2.2
		c-0.9,0.4-1.7,0.6-2.4,0.8C338.3,98.3,337.3,98.4,336.3,98.4z M335.6,83.8c-1.3,0-2.3,0.4-3.1,1.3c-0.8,0.8-1.2,2-1.4,3.5h8.4
		c0-1.5-0.3-2.7-1-3.5S336.9,83.8,335.6,83.8z M333.8,79.5c0.5-0.6,1-1.3,1.5-2.2c0.5-0.9,1-1.6,1.3-2.2h3v0.3
		c-0.4,0.6-1.1,1.4-1.9,2.3s-1.6,1.6-2.2,2.2h-1.6V79.5z"/>
	<path class="st0" d="M353.8,81.8c2.1,0,3.7,0.7,4.9,2.2c1.2,1.4,1.8,3.5,1.8,6.1s-0.6,4.7-1.8,6.1c-1.2,1.5-2.8,2.2-4.9,2.2
		c-1,0-2-0.2-2.9-0.6c-0.9-0.4-1.6-1-2.2-1.8h-0.2l-0.5,2.1h-1.7V75.3h2.4v5.5c0,1.2,0,2.4-0.1,3.3h0.1
		C349.9,82.6,351.6,81.8,353.8,81.8z M353.4,83.8c-1.7,0-2.9,0.5-3.6,1.4s-1.1,2.6-1.1,4.8s0.4,3.9,1.1,4.8s2,1.5,3.6,1.5
		c1.5,0,2.6-0.5,3.3-1.6s1.1-2.7,1.1-4.7c0-2.1-0.4-3.6-1.1-4.7S355,83.8,353.4,83.8z"/>
	<path class="st0" d="M371.5,98.4c-2.4,0-4.2-0.7-5.6-2.2c-1.4-1.4-2.1-3.5-2.1-6c0-2.6,0.6-4.6,1.9-6.2c1.3-1.5,3-2.3,5.1-2.3
		c2,0,3.6,0.7,4.8,2s1.8,3.1,1.8,5.2v1.5h-11.1c0,1.9,0.5,3.3,1.4,4.3c0.9,1,2.2,1.5,3.8,1.5c1.7,0,3.4-0.4,5.1-1.1v2.2
		c-0.9,0.4-1.7,0.6-2.4,0.8C373.5,98.3,372.6,98.4,371.5,98.4z M370.8,83.8c-1.3,0-2.3,0.4-3.1,1.3c-0.8,0.8-1.2,2-1.4,3.5h8.4
		c0-1.5-0.3-2.7-1-3.5S372.1,83.8,370.8,83.8z"/>
	<path class="st0" d="M387.9,98.4c-2.3,0-4.1-0.7-5.4-2.1c-1.3-1.4-1.9-3.5-1.9-6.1c0-2.7,0.6-4.8,1.9-6.2c1.3-1.5,3.1-2.2,5.5-2.2
		c0.8,0,1.5,0.1,2.3,0.2s1.4,0.4,1.8,0.6l-0.7,2.1c-0.5-0.2-1.1-0.4-1.8-0.5s-1.2-0.2-1.7-0.2c-3.3,0-4.9,2.1-4.9,6.2
		c0,2,0.4,3.5,1.2,4.5c0.8,1.1,2,1.6,3.5,1.6c1.3,0,2.7-0.3,4.1-0.9v2.2C390.9,98.1,389.6,98.4,387.9,98.4z"/>
	<path class="st0" d="M398.4,94.6l0.2,0.3c-0.3,1-0.6,2.1-1.1,3.4s-1,2.5-1.5,3.6h-1.8c0.3-1,0.6-2.3,0.9-3.8
		c0.3-1.5,0.5-2.7,0.7-3.6H398.4z"/>
	<path class="st0" d="M409,105.3c-0.9,0-1.7-0.1-2.3-0.4v-2c0.7,0.2,1.3,0.3,2,0.3c0.8,0,1.3-0.2,1.7-0.6c0.4-0.4,0.5-1,0.5-1.9V82
		h2.4v18.5C413.4,103.7,411.9,105.3,409,105.3z M410.8,77.7c0-0.6,0.1-1,0.4-1.2s0.6-0.4,1-0.4c0.4,0,0.7,0.1,1,0.4s0.4,0.7,0.4,1.2
		s-0.1,1-0.4,1.2s-0.6,0.4-1,0.4c-0.4,0-0.8-0.1-1-0.4S410.8,78.2,410.8,77.7z"/>
	<path class="st0" d="M425.3,98.4c-2.4,0-4.2-0.7-5.6-2.2c-1.4-1.4-2.1-3.5-2.1-6c0-2.6,0.6-4.6,1.9-6.2c1.3-1.5,3-2.3,5.1-2.3
		c2,0,3.6,0.7,4.8,2s1.8,3.1,1.8,5.2v1.5h-11.1c0,1.9,0.5,3.3,1.4,4.3c0.9,1,2.2,1.5,3.8,1.5c1.7,0,3.4-0.4,5.1-1.1v2.2
		c-0.9,0.4-1.7,0.6-2.4,0.8C427.3,98.3,426.4,98.4,425.3,98.4z M424.7,83.8c-1.3,0-2.3,0.4-3.1,1.3c-0.8,0.8-1.2,2-1.4,3.5h8.4
		c0-1.5-0.3-2.7-1-3.5S425.9,83.8,424.7,83.8z"/>
	<path class="st0" d="M449.6,98.4c-2.3,0-4.1-0.7-5.4-2.1c-1.3-1.4-1.9-3.5-1.9-6.1c0-2.7,0.6-4.8,1.9-6.2c1.3-1.5,3.1-2.2,5.5-2.2
		c0.8,0,1.5,0.1,2.3,0.2s1.4,0.4,1.8,0.6l-0.7,2.1c-0.5-0.2-1.1-0.4-1.8-0.5s-1.2-0.2-1.7-0.2c-3.3,0-4.9,2.1-4.9,6.2
		c0,2,0.4,3.5,1.2,4.5c0.8,1.1,2,1.6,3.5,1.6c1.3,0,2.7-0.3,4.1-0.9v2.2C452.6,98.1,451.2,98.4,449.6,98.4z"/>
	<path class="st0" d="M464.8,81.7c0.7,0,1.4,0.1,1.9,0.2l-0.3,2.3c-0.7-0.1-1.3-0.2-1.8-0.2c-1.3,0-2.4,0.5-3.3,1.6
		c-0.9,1.1-1.4,2.4-1.4,3.9v8.6h-2.4V82h2l0.3,3h0.1c0.6-1,1.3-1.9,2.2-2.4S463.8,81.7,464.8,81.7z"/>
	<path class="st0" d="M476.5,98.4c-2.4,0-4.2-0.7-5.6-2.2c-1.4-1.4-2.1-3.5-2.1-6c0-2.6,0.6-4.6,1.9-6.2c1.3-1.5,3-2.3,5.1-2.3
		c2,0,3.6,0.7,4.8,2s1.8,3.1,1.8,5.2v1.5h-11.1c0,1.9,0.5,3.3,1.4,4.3c0.9,1,2.2,1.5,3.8,1.5c1.7,0,3.4-0.4,5.1-1.1v2.2
		c-0.9,0.4-1.7,0.6-2.4,0.8C478.5,98.3,477.6,98.4,476.5,98.4z M475.8,83.8c-1.3,0-2.3,0.4-3.1,1.3c-0.8,0.8-1.2,2-1.4,3.5h8.4
		c0-1.5-0.3-2.7-1-3.5S477.1,83.8,475.8,83.8z M474,79.5c0.5-0.6,1-1.3,1.5-2.2c0.5-0.9,1-1.6,1.3-2.2h3v0.3
		c-0.4,0.6-1.1,1.4-1.9,2.3s-1.6,1.6-2.2,2.2H474V79.5z"/>
	<path class="st0" d="M493.3,98.4c-2.4,0-4.2-0.7-5.6-2.2c-1.4-1.4-2.1-3.5-2.1-6c0-2.6,0.6-4.6,1.9-6.2c1.3-1.5,3-2.3,5.1-2.3
		c2,0,3.6,0.7,4.8,2s1.8,3.1,1.8,5.2v1.5h-11.1c0,1.9,0.5,3.3,1.4,4.3c0.9,1,2.2,1.5,3.8,1.5c1.7,0,3.4-0.4,5.1-1.1v2.2
		c-0.9,0.4-1.7,0.6-2.4,0.8C495.3,98.3,494.4,98.4,493.3,98.4z M492.7,83.8c-1.3,0-2.3,0.4-3.1,1.3c-0.8,0.8-1.2,2-1.4,3.5h8.4
		c0-1.5-0.3-2.7-1-3.5S493.9,83.8,492.7,83.8z"/>
	<path class="st0" d="M522.1,95.9h-0.1c-1.1,1.6-2.8,2.4-5,2.4c-2.1,0-3.7-0.7-4.9-2.2c-1.2-1.4-1.8-3.5-1.8-6.1s0.6-4.7,1.8-6.2
		s2.8-2.2,4.9-2.2c2.2,0,3.8,0.8,5,2.4h0.2l-0.1-1.2l-0.1-1.1v-6.5h2.4v22.8h-2L522.1,95.9z M517.2,96.3c1.7,0,2.9-0.5,3.6-1.4
		c0.7-0.9,1.1-2.4,1.1-4.4v-0.5c0-2.3-0.4-3.9-1.1-4.9c-0.8-1-2-1.5-3.6-1.5c-1.4,0-2.5,0.6-3.3,1.7c-0.8,1.1-1.1,2.7-1.1,4.7
		c0,2.1,0.4,3.6,1.1,4.6S515.8,96.3,517.2,96.3z"/>
	<path class="st0" d="M536.3,98.4c-2.4,0-4.2-0.7-5.6-2.2c-1.4-1.4-2.1-3.5-2.1-6c0-2.6,0.6-4.6,1.9-6.2c1.3-1.5,3-2.3,5.1-2.3
		c2,0,3.6,0.7,4.8,2s1.8,3.1,1.8,5.2v1.5h-11.1c0,1.9,0.5,3.3,1.4,4.3c0.9,1,2.2,1.5,3.8,1.5c1.7,0,3.4-0.4,5.1-1.1v2.2
		c-0.9,0.4-1.7,0.6-2.4,0.8C538.3,98.3,537.4,98.4,536.3,98.4z M535.7,83.8c-1.3,0-2.3,0.4-3.1,1.3c-0.8,0.8-1.2,2-1.4,3.5h8.4
		c0-1.5-0.3-2.7-1-3.5S536.9,83.8,535.7,83.8z"/>
	<path class="st0" d="M556.7,93.7c0,1.5-0.6,2.6-1.7,3.5s-2.7,1.2-4.7,1.2c-2.1,0-3.8-0.3-5-1v-2.3c0.8,0.4,1.6,0.7,2.5,0.9
		c0.9,0.2,1.7,0.3,2.6,0.3c1.3,0,2.2-0.2,2.9-0.6s1-1,1-1.9c0-0.6-0.3-1.2-0.8-1.6c-0.5-0.4-1.6-1-3.2-1.6c-1.5-0.6-2.6-1-3.2-1.5
		c-0.6-0.4-1.1-0.9-1.4-1.4c-0.3-0.5-0.5-1.2-0.5-1.9c0-1.3,0.5-2.3,1.6-3.1s2.5-1.1,4.4-1.1c1.7,0,3.4,0.4,5.1,1.1l-0.9,2
		c-1.6-0.7-3.1-1-4.4-1c-1.2,0-2,0.2-2.6,0.5s-0.9,0.9-0.9,1.5c0,0.4,0.1,0.8,0.3,1.1c0.2,0.3,0.6,0.6,1.1,0.9s1.4,0.7,2.8,1.2
		c1.9,0.7,3.2,1.4,3.9,2.1C556.4,91.7,556.7,92.6,556.7,93.7z"/>
	<path class="st0" d="M10.8,113.7c0-0.6,0.1-1,0.4-1.2s0.6-0.4,1-0.4c0.4,0,0.7,0.1,1,0.4s0.4,0.7,0.4,1.2s-0.1,1-0.4,1.2
		s-0.6,0.4-1,0.4c-0.4,0-0.8-0.1-1-0.4S10.8,114.2,10.8,113.7z M13.5,134.1h-2.4V118h2.4V134.1z"/>
	<path class="st0" d="M21.1,134.1h-2.4v-22.8h2.4V134.1z"/>
	<path class="st0" d="M28.7,134.1h-2.4v-22.8h2.4V134.1z"/>
	<path class="st0" d="M36.1,118v10.4c0,1.3,0.3,2.3,0.9,2.9s1.5,1,2.8,1c1.7,0,2.9-0.5,3.7-1.4c0.8-0.9,1.2-2.4,1.2-4.5V118h2.4
		v16.1h-2l-0.4-2.2h-0.1c-0.5,0.8-1.2,1.4-2.1,1.8s-1.9,0.6-3,0.6c-2,0-3.4-0.5-4.4-1.4s-1.5-2.4-1.5-4.5V118H36.1z"/>
	<path class="st0" d="M62.6,129.7c0,1.5-0.6,2.6-1.7,3.5s-2.7,1.2-4.7,1.2c-2.1,0-3.8-0.3-5-1v-2.3c0.8,0.4,1.6,0.7,2.5,0.9
		c0.9,0.2,1.7,0.3,2.6,0.3c1.3,0,2.2-0.2,2.9-0.6s1-1,1-1.9c0-0.6-0.3-1.2-0.8-1.6c-0.5-0.4-1.6-1-3.2-1.6c-1.5-0.6-2.6-1-3.2-1.5
		c-0.6-0.4-1.1-0.9-1.4-1.4c-0.3-0.5-0.5-1.2-0.5-1.9c0-1.3,0.5-2.3,1.6-3.1s2.5-1.1,4.4-1.1c1.7,0,3.4,0.4,5.1,1.1l-0.9,2
		c-1.6-0.7-3.1-1-4.4-1c-1.2,0-2,0.2-2.6,0.5s-0.9,0.9-0.9,1.5c0,0.4,0.1,0.8,0.3,1.1c0.2,0.3,0.6,0.6,1.1,0.9s1.4,0.7,2.8,1.2
		c1.9,0.7,3.2,1.4,3.9,2.1C62.3,127.7,62.6,128.6,62.6,129.7z"/>
	<path class="st0" d="M71.7,132.4c0.4,0,0.8,0,1.2-0.1s0.7-0.1,1-0.2v1.9c-0.3,0.1-0.7,0.2-1.2,0.3c-0.5,0.1-1,0.1-1.4,0.1
		c-3.1,0-4.7-1.6-4.7-4.9v-9.6h-2.3v-1.2l2.3-1l1-3.4h1.4v3.7h4.7v1.9h-4.7v9.4c0,1,0.2,1.7,0.7,2.2S70.9,132.4,71.7,132.4z"/>
	<path class="st0" d="M84.5,117.7c0.7,0,1.4,0.1,1.9,0.2l-0.3,2.3c-0.7-0.1-1.3-0.2-1.8-0.2c-1.3,0-2.4,0.5-3.3,1.6
		c-0.9,1.1-1.4,2.4-1.4,3.9v8.6h-2.4V118h2l0.3,3h0.1c0.6-1,1.3-1.9,2.2-2.4S83.5,117.7,84.5,117.7z"/>
	<path class="st0" d="M99.3,134.1l-0.5-2.3h-0.1c-0.8,1-1.6,1.7-2.4,2s-1.8,0.5-3,0.5c-1.6,0-2.8-0.4-3.7-1.2
		c-0.9-0.8-1.4-2-1.4-3.5c0-3.2,2.6-4.9,7.8-5.1l2.7-0.1v-1c0-1.3-0.3-2.2-0.8-2.8c-0.5-0.6-1.4-0.9-2.6-0.9c-1.3,0-2.9,0.4-4.5,1.2
		l-0.7-1.9c0.8-0.4,1.7-0.8,2.6-1c0.9-0.2,1.9-0.4,2.8-0.4c1.9,0,3.3,0.4,4.3,1.3c0.9,0.8,1.4,2.2,1.4,4.1v11H99.3z M93.8,132.4
		c1.5,0,2.7-0.4,3.6-1.2c0.9-0.8,1.3-2,1.3-3.5v-1.5l-2.4,0.1c-1.9,0.1-3.3,0.4-4.2,0.9s-1.3,1.4-1.3,2.5c0,0.9,0.3,1.5,0.8,2
		C92.1,132.1,92.8,132.4,93.8,132.4z"/>
	<path class="st0" d="M111.2,132.4c0.4,0,0.8,0,1.2-0.1s0.7-0.1,1-0.2v1.9c-0.3,0.1-0.7,0.2-1.2,0.3c-0.5,0.1-1,0.1-1.4,0.1
		c-3.1,0-4.7-1.6-4.7-4.9v-9.6h-2.3v-1.2l2.3-1l1-3.4h1.4v3.7h4.7v1.9h-4.7v9.4c0,1,0.2,1.7,0.7,2.2S110.4,132.4,111.2,132.4z"/>
	<path class="st0" d="M116.4,113.7c0-0.6,0.1-1,0.4-1.2s0.6-0.4,1-0.4c0.4,0,0.7,0.1,1,0.4s0.4,0.7,0.4,1.2s-0.1,1-0.4,1.2
		s-0.6,0.4-1,0.4c-0.4,0-0.8-0.1-1-0.4S116.4,114.2,116.4,113.7z M119.1,134.1h-2.4V118h2.4V134.1z"/>
	<path class="st0" d="M138.1,126c0,2.6-0.7,4.7-2,6.1s-3.1,2.2-5.5,2.2c-1.4,0-2.7-0.3-3.8-1s-2-1.6-2.6-2.9s-0.9-2.7-0.9-4.4
		c0-2.6,0.7-4.7,2-6.1s3.1-2.2,5.4-2.2c2.2,0,4,0.7,5.4,2.2C137.4,121.5,138.1,123.5,138.1,126z M125.9,126c0,2.1,0.4,3.6,1.2,4.7
		s2,1.6,3.6,1.6s2.8-0.5,3.6-1.6s1.2-2.6,1.2-4.7c0-2-0.4-3.6-1.2-4.7s-2-1.6-3.7-1.6c-1.6,0-2.8,0.5-3.6,1.6S125.9,124,125.9,126z"
		/>
	<path class="st0" d="M153.3,134.1v-10.4c0-1.3-0.3-2.3-0.9-2.9s-1.5-1-2.8-1c-1.7,0-2.9,0.5-3.7,1.4s-1.2,2.4-1.2,4.5v8.4h-2.4V118
		h2l0.4,2.2h0.1c0.5-0.8,1.2-1.4,2.1-1.8s1.9-0.7,3-0.7c1.9,0,3.4,0.5,4.4,1.4s1.5,2.4,1.5,4.5v10.5H153.3z"/>
	<path class="st0" d="M171.1,129.7c0,1.5-0.6,2.6-1.7,3.5s-2.7,1.2-4.7,1.2c-2.1,0-3.8-0.3-5-1v-2.3c0.8,0.4,1.6,0.7,2.5,0.9
		c0.9,0.2,1.7,0.3,2.6,0.3c1.3,0,2.2-0.2,2.9-0.6s1-1,1-1.9c0-0.6-0.3-1.2-0.8-1.6c-0.5-0.4-1.6-1-3.2-1.6c-1.5-0.6-2.6-1-3.2-1.5
		c-0.6-0.4-1.1-0.9-1.4-1.4c-0.3-0.5-0.5-1.2-0.5-1.9c0-1.3,0.5-2.3,1.6-3.1s2.5-1.1,4.4-1.1c1.7,0,3.4,0.4,5.1,1.1l-0.9,2
		c-1.6-0.7-3.1-1-4.4-1c-1.2,0-2,0.2-2.6,0.5s-0.9,0.9-0.9,1.5c0,0.4,0.1,0.8,0.3,1.1c0.2,0.3,0.6,0.6,1.1,0.9s1.4,0.7,2.8,1.2
		c1.9,0.7,3.2,1.4,3.9,2.1C170.8,127.7,171.1,128.6,171.1,129.7z"/>
	<path class="st0" d="M177.6,130.6l0.2,0.3c-0.3,1-0.6,2.1-1.1,3.4s-1,2.5-1.5,3.6h-1.8c0.3-1,0.6-2.3,0.9-3.8
		c0.3-1.5,0.5-2.7,0.7-3.6H177.6z"/>
	<path class="st0" d="M201.2,131.9H201c-1.1,1.6-2.8,2.4-5,2.4c-2.1,0-3.7-0.7-4.9-2.2c-1.2-1.4-1.8-3.5-1.8-6.1
		c0-2.6,0.6-4.7,1.8-6.2s2.8-2.2,4.9-2.2c2.2,0,3.8,0.8,5,2.4h0.2l-0.1-1.2l-0.1-1.1v-6.5h2.4v22.8h-2L201.2,131.9z M196.3,132.3
		c1.7,0,2.9-0.5,3.6-1.4c0.7-0.9,1.1-2.4,1.1-4.4v-0.5c0-2.3-0.4-3.9-1.1-4.9s-2-1.5-3.6-1.5c-1.4,0-2.5,0.6-3.3,1.7
		c-0.8,1.1-1.1,2.7-1.1,4.7c0,2.1,0.4,3.6,1.1,4.6S194.8,132.3,196.3,132.3z"/>
	<path class="st0" d="M215.4,134.4c-2.4,0-4.2-0.7-5.6-2.2s-2.1-3.5-2.1-6c0-2.6,0.6-4.6,1.9-6.2c1.3-1.5,3-2.3,5.1-2.3
		c2,0,3.6,0.7,4.8,2s1.8,3.1,1.8,5.2v1.5h-11.1c0,1.9,0.5,3.3,1.4,4.3c0.9,1,2.2,1.5,3.8,1.5c1.7,0,3.4-0.4,5.1-1.1v2.2
		c-0.9,0.4-1.7,0.6-2.4,0.8C217.4,134.3,216.5,134.4,215.4,134.4z M214.7,119.8c-1.3,0-2.3,0.4-3.1,1.3s-1.2,2-1.4,3.5h8.4
		c0-1.5-0.3-2.7-1-3.5S216,119.8,214.7,119.8z"/>
	<path class="st0" d="M235.8,129.7c0,1.5-0.6,2.6-1.7,3.5s-2.7,1.2-4.7,1.2c-2.1,0-3.8-0.3-5-1v-2.3c0.8,0.4,1.6,0.7,2.5,0.9
		c0.9,0.2,1.7,0.3,2.6,0.3c1.3,0,2.2-0.2,2.9-0.6s1-1,1-1.9c0-0.6-0.3-1.2-0.8-1.6c-0.5-0.4-1.6-1-3.2-1.6c-1.5-0.6-2.6-1-3.2-1.5
		c-0.6-0.4-1.1-0.9-1.4-1.4c-0.3-0.5-0.5-1.2-0.5-1.9c0-1.3,0.5-2.3,1.6-3.1s2.5-1.1,4.4-1.1c1.7,0,3.4,0.4,5.1,1.1l-0.9,2
		c-1.6-0.7-3.1-1-4.4-1c-1.2,0-2,0.2-2.6,0.5s-0.9,0.9-0.9,1.5c0,0.4,0.1,0.8,0.3,1.1c0.2,0.3,0.6,0.6,1.1,0.9s1.4,0.7,2.8,1.2
		c1.9,0.7,3.2,1.4,3.9,2.1C235.5,127.7,235.8,128.6,235.8,129.7z"/>
	<path class="st0" d="M247.3,113.7c0-0.6,0.1-1,0.4-1.2s0.6-0.4,1-0.4c0.4,0,0.7,0.1,1,0.4s0.4,0.7,0.4,1.2s-0.1,1-0.4,1.2
		s-0.6,0.4-1,0.4c-0.4,0-0.8-0.1-1-0.4S247.3,114.2,247.3,113.7z M250,134.1h-2.4V118h2.4V134.1z"/>
	<path class="st0" d="M275.6,134.1v-10.4c0-1.3-0.3-2.2-0.8-2.9s-1.4-1-2.5-1c-1.5,0-2.6,0.4-3.4,1.3s-1.1,2.2-1.1,4v9h-2.4v-10.4
		c0-1.3-0.3-2.2-0.8-2.9s-1.4-1-2.6-1c-1.5,0-2.6,0.5-3.3,1.4c-0.7,0.9-1.1,2.4-1.1,4.5v8.4h-2.4V118h2l0.4,2.2h0.1
		c0.5-0.8,1.1-1.4,1.9-1.8c0.8-0.4,1.8-0.7,2.8-0.7c2.5,0,4.2,0.9,4.9,2.7h0.1c0.5-0.8,1.2-1.5,2.1-2s1.9-0.7,3.1-0.7
		c1.8,0,3.2,0.5,4.1,1.4c0.9,0.9,1.4,2.4,1.4,4.5v10.5H275.6z"/>
	<path class="st0" d="M292.9,134.1l-0.5-2.3h-0.1c-0.8,1-1.6,1.7-2.4,2s-1.8,0.5-3,0.5c-1.6,0-2.8-0.4-3.7-1.2
		c-0.9-0.8-1.4-2-1.4-3.5c0-3.2,2.6-4.9,7.8-5.1l2.7-0.1v-1c0-1.3-0.3-2.2-0.8-2.8c-0.5-0.6-1.4-0.9-2.6-0.9c-1.3,0-2.9,0.4-4.5,1.2
		l-0.7-1.9c0.8-0.4,1.7-0.8,2.6-1c0.9-0.2,1.9-0.4,2.8-0.4c1.9,0,3.3,0.4,4.3,1.3c0.9,0.8,1.4,2.2,1.4,4.1v11H292.9z M287.4,132.4
		c1.5,0,2.7-0.4,3.6-1.2c0.9-0.8,1.3-2,1.3-3.5v-1.5l-2.4,0.1c-1.9,0.1-3.3,0.4-4.2,0.9s-1.3,1.4-1.3,2.5c0,0.9,0.3,1.5,0.8,2
		C285.7,132.1,286.5,132.4,287.4,132.4z"/>
	<path class="st0" d="M312.9,118v1.5l-3,0.4c0.3,0.3,0.5,0.8,0.7,1.3s0.3,1.2,0.3,1.9c0,1.6-0.5,2.8-1.6,3.8s-2.5,1.4-4.4,1.4
		c-0.5,0-0.9,0-1.3-0.1c-1,0.5-1.6,1.2-1.6,2.1c0,0.4,0.2,0.8,0.5,1s1,0.3,1.9,0.3h2.8c1.7,0,3.1,0.4,4,1.1c0.9,0.7,1.4,1.8,1.4,3.2
		c0,1.8-0.7,3.1-2.1,4.1s-3.5,1.4-6.2,1.4c-2.1,0-3.7-0.4-4.9-1.2s-1.7-1.9-1.7-3.3c0-1,0.3-1.8,0.9-2.5s1.5-1.2,2.6-1.5
		c-0.4-0.2-0.8-0.5-1-0.9c-0.3-0.4-0.4-0.8-0.4-1.4c0-0.6,0.2-1.1,0.5-1.5s0.8-0.9,1.5-1.3c-0.8-0.3-1.5-0.9-2-1.7
		c-0.5-0.8-0.8-1.8-0.8-2.8c0-1.8,0.5-3.1,1.6-4.1s2.5-1.4,4.5-1.4c0.8,0,1.6,0.1,2.3,0.3H312.9z M300.1,136.8c0,0.9,0.4,1.5,1.1,2
		s1.8,0.7,3.1,0.7c2,0,3.6-0.3,4.5-0.9c1-0.6,1.5-1.4,1.5-2.5c0-0.9-0.3-1.5-0.8-1.8s-1.5-0.5-3-0.5h-2.9c-1.1,0-2,0.3-2.6,0.8
		S300.1,135.8,300.1,136.8z M301.4,123.2c0,1.1,0.3,2,1,2.5s1.5,0.9,2.7,0.9c2.4,0,3.6-1.2,3.6-3.5c0-2.4-1.2-3.6-3.6-3.6
		c-1.1,0-2,0.3-2.6,0.9S301.4,122,301.4,123.2z"/>
	<path class="st0" d="M322.9,134.4c-2.4,0-4.2-0.7-5.6-2.2c-1.4-1.4-2.1-3.5-2.1-6c0-2.6,0.6-4.6,1.9-6.2c1.3-1.5,3-2.3,5.1-2.3
		c2,0,3.6,0.7,4.8,2s1.8,3.1,1.8,5.2v1.5h-11.1c0,1.9,0.5,3.3,1.4,4.3c0.9,1,2.2,1.5,3.8,1.5c1.7,0,3.4-0.4,5.1-1.1v2.2
		c-0.9,0.4-1.7,0.6-2.4,0.8C325,134.3,324,134.4,322.9,134.4z M322.3,119.8c-1.3,0-2.3,0.4-3.1,1.3c-0.8,0.8-1.2,2-1.4,3.5h8.4
		c0-1.5-0.3-2.7-1-3.5S323.6,119.8,322.3,119.8z"/>
	<path class="st0" d="M343.4,129.7c0,1.5-0.6,2.6-1.7,3.5s-2.7,1.2-4.7,1.2c-2.1,0-3.8-0.3-5-1v-2.3c0.8,0.4,1.6,0.7,2.5,0.9
		c0.9,0.2,1.7,0.3,2.6,0.3c1.3,0,2.2-0.2,2.9-0.6s1-1,1-1.9c0-0.6-0.3-1.2-0.8-1.6c-0.5-0.4-1.6-1-3.2-1.6c-1.5-0.6-2.6-1-3.2-1.5
		c-0.6-0.4-1.1-0.9-1.4-1.4c-0.3-0.5-0.5-1.2-0.5-1.9c0-1.3,0.5-2.3,1.6-3.1s2.5-1.1,4.4-1.1c1.7,0,3.4,0.4,5.1,1.1l-0.9,2
		c-1.6-0.7-3.1-1-4.4-1c-1.2,0-2,0.2-2.6,0.5s-0.9,0.9-0.9,1.5c0,0.4,0.1,0.8,0.3,1.1c0.2,0.3,0.6,0.6,1.1,0.9s1.4,0.7,2.8,1.2
		c1.9,0.7,3.2,1.4,3.9,2.1C343,127.7,343.4,128.6,343.4,129.7z"/>
	<path class="st0" d="M361.9,134.4c-2.4,0-4.2-0.7-5.6-2.2c-1.4-1.4-2.1-3.5-2.1-6c0-2.6,0.6-4.6,1.9-6.2c1.3-1.5,3-2.3,5.1-2.3
		c2,0,3.6,0.7,4.8,2s1.8,3.1,1.8,5.2v1.5h-11.1c0,1.9,0.5,3.3,1.4,4.3c0.9,1,2.2,1.5,3.8,1.5c1.7,0,3.4-0.4,5.1-1.1v2.2
		c-0.9,0.4-1.7,0.6-2.4,0.8C363.9,134.3,363,134.4,361.9,134.4z M361.2,119.8c-1.3,0-2.3,0.4-3.1,1.3c-0.8,0.8-1.2,2-1.4,3.5h8.4
		c0-1.5-0.3-2.7-1-3.5S362.5,119.8,361.2,119.8z"/>
	<path class="st0" d="M377.1,132.4c0.4,0,0.8,0,1.2-0.1s0.7-0.1,1-0.2v1.9c-0.3,0.1-0.7,0.2-1.2,0.3c-0.5,0.1-1,0.1-1.4,0.1
		c-3.1,0-4.7-1.6-4.7-4.9v-9.6h-2.3v-1.2l2.3-1l1-3.4h1.4v3.7h4.7v1.9h-4.7v9.4c0,1,0.2,1.7,0.7,2.2S376.3,132.4,377.1,132.4z"/>
	<path class="st0" d="M401.2,131.9h-0.1c-1.1,1.6-2.8,2.4-5,2.4c-2.1,0-3.7-0.7-4.9-2.2c-1.2-1.4-1.8-3.5-1.8-6.1
		c0-2.6,0.6-4.7,1.8-6.2s2.8-2.2,4.9-2.2c2.2,0,3.8,0.8,5,2.4h0.2l-0.1-1.2l-0.1-1.1v-6.5h2.4v22.8h-2L401.2,131.9z M396.4,132.3
		c1.7,0,2.9-0.5,3.6-1.4c0.7-0.9,1.1-2.4,1.1-4.4v-0.5c0-2.3-0.4-3.9-1.1-4.9c-0.8-1-2-1.5-3.6-1.5c-1.4,0-2.5,0.6-3.3,1.7
		c-0.8,1.1-1.1,2.7-1.1,4.7c0,2.1,0.4,3.6,1.1,4.6S394.9,132.3,396.4,132.3z"/>
	<path class="st0" d="M415.5,134.4c-2.4,0-4.2-0.7-5.6-2.2c-1.4-1.4-2.1-3.5-2.1-6c0-2.6,0.6-4.6,1.9-6.2c1.3-1.5,3-2.3,5.1-2.3
		c2,0,3.6,0.7,4.8,2s1.8,3.1,1.8,5.2v1.5h-11.1c0,1.9,0.5,3.3,1.4,4.3c0.9,1,2.2,1.5,3.8,1.5c1.7,0,3.4-0.4,5.1-1.1v2.2
		c-0.9,0.4-1.7,0.6-2.4,0.8C417.5,134.3,416.6,134.4,415.5,134.4z M414.8,119.8c-1.3,0-2.3,0.4-3.1,1.3c-0.8,0.8-1.2,2-1.4,3.5h8.4
		c0-1.5-0.3-2.7-1-3.5S416.1,119.8,414.8,119.8z"/>
	<path class="st0" d="M435.9,129.7c0,1.5-0.6,2.6-1.7,3.5s-2.7,1.2-4.7,1.2c-2.1,0-3.8-0.3-5-1v-2.3c0.8,0.4,1.6,0.7,2.5,0.9
		c0.9,0.2,1.7,0.3,2.6,0.3c1.3,0,2.2-0.2,2.9-0.6s1-1,1-1.9c0-0.6-0.3-1.2-0.8-1.6c-0.5-0.4-1.6-1-3.2-1.6c-1.5-0.6-2.6-1-3.2-1.5
		c-0.6-0.4-1.1-0.9-1.4-1.4c-0.3-0.5-0.5-1.2-0.5-1.9c0-1.3,0.5-2.3,1.6-3.1s2.5-1.1,4.4-1.1c1.7,0,3.4,0.4,5.1,1.1l-0.9,2
		c-1.6-0.7-3.1-1-4.4-1c-1.2,0-2,0.2-2.6,0.5s-0.9,0.9-0.9,1.5c0,0.4,0.1,0.8,0.3,1.1c0.2,0.3,0.6,0.6,1.1,0.9s1.4,0.7,2.8,1.2
		c1.9,0.7,3.2,1.4,3.9,2.1C435.6,127.7,435.9,128.6,435.9,129.7z"/>
	<path class="st0" d="M458,129.7c0,1.5-0.6,2.6-1.7,3.5s-2.7,1.2-4.7,1.2c-2.1,0-3.8-0.3-5-1v-2.3c0.8,0.4,1.6,0.7,2.5,0.9
		c0.9,0.2,1.7,0.3,2.6,0.3c1.3,0,2.2-0.2,2.9-0.6s1-1,1-1.9c0-0.6-0.3-1.2-0.8-1.6c-0.5-0.4-1.6-1-3.2-1.6c-1.5-0.6-2.6-1-3.2-1.5
		c-0.6-0.4-1.1-0.9-1.4-1.4c-0.3-0.5-0.5-1.2-0.5-1.9c0-1.3,0.5-2.3,1.6-3.1s2.5-1.1,4.4-1.1c1.7,0,3.4,0.4,5.1,1.1l-0.9,2
		c-1.6-0.7-3.1-1-4.4-1c-1.2,0-2,0.2-2.6,0.5s-0.9,0.9-0.9,1.5c0,0.4,0.1,0.8,0.3,1.1c0.2,0.3,0.6,0.6,1.1,0.9s1.4,0.7,2.8,1.2
		c1.9,0.7,3.2,1.4,3.9,2.1C457.7,127.7,458,128.6,458,129.7z"/>
	<path class="st0" d="M461.7,113.7c0-0.6,0.1-1,0.4-1.2s0.6-0.4,1-0.4c0.4,0,0.7,0.1,1,0.4s0.4,0.7,0.4,1.2s-0.1,1-0.4,1.2
		s-0.6,0.4-1,0.4c-0.4,0-0.8-0.1-1-0.4S461.7,114.2,461.7,113.7z M464.4,134.1h-2.4V118h2.4V134.1z"/>
	<path class="st0" d="M474.7,132.4c0.4,0,0.8,0,1.2-0.1s0.7-0.1,1-0.2v1.9c-0.3,0.1-0.7,0.2-1.2,0.3c-0.5,0.1-1,0.1-1.4,0.1
		c-3.1,0-4.7-1.6-4.7-4.9v-9.6h-2.3v-1.2l2.3-1l1-3.4h1.4v3.7h4.7v1.9h-4.7v9.4c0,1,0.2,1.7,0.7,2.2S473.9,132.4,474.7,132.4z"/>
	<path class="st0" d="M486.9,134.4c-2.4,0-4.2-0.7-5.6-2.2c-1.4-1.4-2.1-3.5-2.1-6c0-2.6,0.6-4.6,1.9-6.2c1.3-1.5,3-2.3,5.1-2.3
		c2,0,3.6,0.7,4.8,2s1.8,3.1,1.8,5.2v1.5h-11.1c0,1.9,0.5,3.3,1.4,4.3c0.9,1,2.2,1.5,3.8,1.5c1.7,0,3.4-0.4,5.1-1.1v2.2
		c-0.9,0.4-1.7,0.6-2.4,0.8C488.9,134.3,488,134.4,486.9,134.4z M486.2,119.8c-1.3,0-2.3,0.4-3.1,1.3c-0.8,0.8-1.2,2-1.4,3.5h8.4
		c0-1.5-0.3-2.7-1-3.5S487.5,119.8,486.2,119.8z"/>
	<path class="st0" d="M507.3,129.7c0,1.5-0.6,2.6-1.7,3.5s-2.7,1.2-4.7,1.2c-2.1,0-3.8-0.3-5-1v-2.3c0.8,0.4,1.6,0.7,2.5,0.9
		c0.9,0.2,1.7,0.3,2.6,0.3c1.3,0,2.2-0.2,2.9-0.6s1-1,1-1.9c0-0.6-0.3-1.2-0.8-1.6c-0.5-0.4-1.6-1-3.2-1.6c-1.5-0.6-2.6-1-3.2-1.5
		c-0.6-0.4-1.1-0.9-1.4-1.4c-0.3-0.5-0.5-1.2-0.5-1.9c0-1.3,0.5-2.3,1.6-3.1s2.5-1.1,4.4-1.1c1.7,0,3.4,0.4,5.1,1.1l-0.9,2
		c-1.6-0.7-3.1-1-4.4-1c-1.2,0-2,0.2-2.6,0.5s-0.9,0.9-0.9,1.5c0,0.4,0.1,0.8,0.3,1.1c0.2,0.3,0.6,0.6,1.1,0.9s1.4,0.7,2.8,1.2
		c1.9,0.7,3.2,1.4,3.9,2.1C507,127.7,507.3,128.6,507.3,129.7z"/>
	<path class="st0" d="M538.1,134.1h-2.5l-4.3-14.3c-0.2-0.6-0.4-1.4-0.7-2.4s-0.4-1.5-0.4-1.7c-0.2,1.3-0.6,2.7-1,4.2l-4.2,14.3
		h-2.5l-5.7-21.4h2.6l3.4,13.2c0.5,1.9,0.8,3.5,1,5c0.3-1.8,0.7-3.5,1.2-5.2l3.8-13h2.6l4,13.1c0.5,1.5,0.9,3.2,1.2,5.1
		c0.2-1.4,0.5-3.1,1.1-5.1l3.4-13.2h2.6L538.1,134.1z"/>
	<path class="st0" d="M553.6,134.4c-2.4,0-4.2-0.7-5.6-2.2c-1.4-1.4-2.1-3.5-2.1-6c0-2.6,0.6-4.6,1.9-6.2c1.3-1.5,3-2.3,5.1-2.3
		c2,0,3.6,0.7,4.8,2s1.8,3.1,1.8,5.2v1.5h-11.1c0,1.9,0.5,3.3,1.4,4.3c0.9,1,2.2,1.5,3.8,1.5c1.7,0,3.4-0.4,5.1-1.1v2.2
		c-0.9,0.4-1.7,0.6-2.4,0.8C555.6,134.3,554.7,134.4,553.6,134.4z M553,119.8c-1.3,0-2.3,0.4-3.1,1.3c-0.8,0.8-1.2,2-1.4,3.5h8.4
		c0-1.5-0.3-2.7-1-3.5S554.2,119.8,553,119.8z"/>
	<path class="st0" d="M571.1,117.8c2.1,0,3.7,0.7,4.9,2.2c1.2,1.4,1.8,3.5,1.8,6.1c0,2.6-0.6,4.7-1.8,6.1c-1.2,1.5-2.8,2.2-4.9,2.2
		c-1,0-2-0.2-2.9-0.6c-0.9-0.4-1.6-1-2.2-1.8h-0.2l-0.5,2.1h-1.7v-22.8h2.4v5.5c0,1.2,0,2.4-0.1,3.3h0.1
		C567.2,118.6,568.9,117.8,571.1,117.8z M570.8,119.8c-1.7,0-2.9,0.5-3.6,1.4s-1.1,2.6-1.1,4.8c0,2.3,0.4,3.9,1.1,4.8s2,1.5,3.6,1.5
		c1.5,0,2.6-0.5,3.3-1.6s1.1-2.7,1.1-4.7c0-2.1-0.4-3.6-1.1-4.7S572.3,119.8,570.8,119.8z"/>
	<path class="st0" d="M581.7,132.5c0-0.7,0.1-1.1,0.4-1.5c0.3-0.3,0.7-0.5,1.3-0.5c0.6,0,1,0.2,1.3,0.5c0.3,0.3,0.5,0.8,0.5,1.5
		c0,0.6-0.2,1.1-0.5,1.5s-0.8,0.5-1.3,0.5c-0.5,0-0.9-0.2-1.2-0.5C581.9,133.7,581.7,133.2,581.7,132.5z"/>

</g>
</svg>
